<svg width="453" height="100" viewBox="0 0 453 100" fill="none" xmlns="http://www.w3.org/2000/svg">
<g clip-path="url(#clip0_299_31)">
<path d="M0 47.6668C0.103575 46.6188 0.19824 45.5697 0.312952 44.5228C1.21394 36.3459 3.92249 28.8195 8.57556 22.0325C15.955 11.2793 25.9981 4.36574 38.7048 1.2919C41.4327 0.646973 44.2128 0.246678 47.0119 0.095779C47.2313 0.0824145 47.444 0.0322976 47.6668 0H52.3444C53.3935 0.111371 54.4437 0.208264 55.4928 0.321862C61.6382 0.9651 67.6035 2.77974 73.066 5.66767C83.2127 11.0216 90.6912 18.9152 95.5017 29.3485C97.9676 34.6869 99.4276 40.4344 99.8084 46.3025C100.634 58.5789 97.512 69.765 90.1748 79.6392C81.9779 90.6649 70.9867 97.2915 57.3939 99.3986C47.7046 100.9 38.3261 99.5835 29.3941 95.524C19.824 91.1739 12.3466 84.4315 6.95734 75.3982C3.39013 69.4198 1.22508 62.9502 0.373093 56.0452C0.247244 55.0329 0.191558 54.0149 0.0980064 52.997C0.0779597 52.7776 0.0334113 52.5671 0 52.3444V47.6668ZM98.4909 50.0111C98.4798 23.1986 76.7881 1.48123 50.0056 1.4701C23.2053 1.45896 1.47344 23.1874 1.46119 50.0178C1.44782 76.7658 23.2253 98.5032 50.0156 98.4887C76.7869 98.4742 98.502 76.758 98.4909 50.0111Z" fill="#5C3713"/>
<path d="M98.4907 50.0111C98.5019 76.758 76.7868 98.4742 50.0154 98.4887C23.2251 98.5032 1.44766 76.7658 1.46437 50.0178C1.47662 23.1919 23.2084 1.45896 50.0054 1.4701C76.7879 1.48123 98.4796 23.1986 98.4907 50.0111ZM49.9787 88.7682C71.3697 88.7794 88.7458 71.42 88.7658 50.0178C88.787 28.5934 71.4265 11.2151 49.9898 11.2006C28.6222 11.1894 11.2271 28.5466 11.2038 49.8942C11.1804 71.3721 28.5231 88.7627 49.9787 88.7705V88.7682ZM66.5306 89.5133L65.604 89.9588C64.9291 90.2929 64.683 90.8375 64.8868 91.5614C65.1797 92.6016 65.976 93.0092 67.0507 92.6685C67.3124 92.5849 67.5274 92.4669 67.7969 92.7397C68.4651 93.4146 68.513 93.3968 69.3561 92.7943C69.2815 92.7342 69.2113 92.6763 69.14 92.6206C68.7402 92.3076 68.3281 92.0637 68.4484 91.3888C68.5487 90.8219 67.9951 90.5758 67.4561 90.8319C66.9171 91.0881 67.0396 91.5392 67.122 91.9657C66.4449 92.1149 66.0573 91.92 65.8602 91.3554C65.6786 90.8364 65.8479 90.5145 66.4493 90.2328C66.8636 90.0379 67.2768 89.8407 67.7145 89.6336C67.6154 89.3396 67.533 89.0957 67.4494 88.854C67.3002 88.4163 67.7835 87.8283 68.1923 88.0287C68.5264 88.1913 68.6689 88.0287 68.8672 87.9174C69.6913 87.434 70.5077 86.9373 71.3652 86.4228C71.4933 86.7112 71.588 86.9239 71.6715 87.1144C71.6392 87.1604 71.6019 87.2026 71.5601 87.2402C71.1362 87.5053 70.7107 87.7689 70.2838 88.031C69.5421 88.4898 69.3929 89.0456 69.8161 89.8129C70.2393 90.5802 70.9454 91.0202 71.7539 91.3042C72.3353 91.5091 72.5736 91.3331 72.636 90.6359C71.843 90.4477 71.167 90.0657 70.7293 89.3407C70.4776 88.9242 70.5066 88.5689 70.9576 88.3061C71.275 88.1234 71.5902 87.9352 71.96 87.7191C72.4433 88.7215 72.9055 89.6815 73.3922 90.6894L74.2587 90.1593L72.264 85.9027L72.9489 85.4204C72.9066 85.3091 72.8788 85.2289 72.8376 85.1487C72.8043 85.0947 72.7671 85.0434 72.7262 84.995C70.8596 85.7512 69.4597 87.3616 67.3949 87.6746C67.0953 87.7191 66.8079 87.9051 66.5384 88.0655C66.1954 88.2704 65.9081 88.2381 65.5639 88.0421C64.8189 87.6167 64.0337 87.2625 63.1483 87.2915C61.5802 87.3393 60.6981 88.5355 61.343 89.8675C61.3692 89.9512 61.3842 90.0381 61.3875 90.1259C61.1024 90.3118 60.4654 90.2795 60.942 90.8876L61.6414 90.7362C62.0401 92.2764 62.4311 93.7911 62.8331 95.348L63.7742 95.0295C63.3833 93.4703 63.0035 91.9457 62.6304 90.4511C62.8743 90.1893 63.5693 90.2784 63.1617 89.6581C62.901 89.687 62.4712 89.8029 62.4333 89.726C62.2707 89.3975 62.1304 89.001 62.1704 88.6502C62.1961 88.4274 62.5369 88.0866 62.7629 88.0655C63.537 87.9898 64.2186 88.3395 65.0249 88.7415C64.5003 88.9843 64.1105 89.187 63.7063 89.3474C63.302 89.5077 63.2719 89.726 63.567 90.049L66.3123 88.8128C66.3869 89.0801 66.4527 89.2805 66.5306 89.5155V89.5133ZM23.3877 83.0115L20.7627 86.68L21.5423 87.3839L24.3266 83.5305C24.4458 83.8479 24.5761 84.0194 24.5493 84.1664C24.4625 84.7355 24.3266 85.2968 24.1852 85.9728C23.5715 86.3459 23.3432 86.8092 23.5837 87.4596C23.8243 88.11 24.3522 88.462 24.948 88.6847C25.4604 88.8807 26.0083 88.913 26.5395 88.5243C26.564 89.8073 27.4205 90.3631 28.454 90.7896L27.9896 91.8543L28.8527 92.3822L30.8719 88.1279L31.4421 88.4063C31.4963 88.3205 31.5461 88.2321 31.5913 88.1412C31.6202 88.0523 31.6429 87.9615 31.6593 87.8695C28.5999 86.1811 25.702 84.2499 23.136 81.8621C22.45 82.4602 23.3421 82.5771 23.3877 83.0115ZM60.148 90.7774L50.9387 92.135C50.9554 92.253 50.9777 92.4067 51.0033 92.5805H51.6715C51.7083 93.0093 51.7495 93.4124 51.7773 93.8167C51.8709 95.1899 52.0858 95.4616 53.4479 95.788L52.1705 96.9462C52.6605 97.5354 52.8242 97.5443 53.2842 97.0721C53.5503 96.7992 53.8109 96.5152 54.1495 96.1633L54.2876 97.0654C55.2343 97.1857 55.2822 97.1456 55.2142 96.2546C55.1273 95.1264 55.0316 94.0005 54.9447 92.8734C54.9291 92.6629 54.9447 92.4491 54.9447 92.2686L56.4549 92.0793C56.5262 92.4546 56.5896 92.7976 56.6587 93.1395C56.711 93.4035 56.7523 93.624 56.4037 93.7566C56.084 93.8768 56.0963 94.1642 56.3001 94.3925C56.5039 94.6208 56.7344 94.8736 57.0051 95.0061C57.2384 95.0997 57.4989 95.0997 57.7323 95.0061C57.8437 94.9605 57.8437 94.6408 57.8815 94.4415C57.8918 94.3036 57.8918 94.1651 57.8815 94.0272L58.9151 93.8412C59.0743 94.7166 59.218 95.5118 59.3695 96.3459L60.3072 96.1042C60.2682 95.8214 60.2437 95.583 60.2036 95.3492C60.0091 94.2169 59.8127 93.085 59.6145 91.9535C59.5599 91.6405 59.4619 91.3298 59.9486 91.2396C60.041 91.2206 60.0867 90.9277 60.1491 90.7774H60.148ZM46.4493 92.4602C46.4037 92.8745 46.3647 93.2342 46.3235 93.6173C45.5249 93.5494 44.7888 93.4837 44.0526 93.4258C43.6806 93.3957 43.4167 93.5694 43.5648 93.9414C43.731 94.3728 43.9761 94.7693 44.2876 95.1108C44.6217 95.4583 45.0416 95.2511 45.0984 94.7767C45.1229 94.5662 45.1519 94.3568 45.1842 94.1085L46.3079 94.2622C46.2322 95.2857 46.1598 96.2546 46.0851 97.2692L47.073 97.3382C47.2033 95.7156 47.3292 94.1519 47.4561 92.5794L48.1722 92.5348V91.9924C46.8469 91.861 45.5494 91.7775 44.2665 91.5915C42.9835 91.4055 41.735 91.1182 40.4353 90.8687C40.4152 91.0781 40.3997 91.2351 40.3829 91.3977L41.196 91.6349C40.9309 93.2119 40.6703 94.76 40.403 96.3537L41.3686 96.5765C41.6537 94.9638 41.9254 93.4202 42.1938 91.8989L46.4493 92.4602ZM3.71183 56.3849L8.63331 56.0341L8.54979 55.1431L4.96698 55.3959C5.97823 54.8925 7.00173 54.476 8.02857 54.0673C8.30031 53.9559 8.51415 53.8646 8.47405 53.4837C8.43841 53.124 8.21456 53.0872 7.95952 53.0226C6.88702 52.7531 5.81563 52.478 4.74424 52.2051L4.74981 52.1372L8.35266 51.8621C8.3237 51.5358 8.30143 51.2852 8.2747 50.9712L3.34097 51.332C3.34097 51.5347 3.34097 51.6661 3.34097 51.7897C3.36769 52.6807 3.36881 52.6807 4.20855 52.8812L7.01621 53.5694C6.98391 53.6296 6.97945 53.653 6.9672 53.6574C6.17758 53.9759 5.38796 54.2967 4.59612 54.6085C3.47461 55.0473 3.4735 55.044 3.71183 56.3849ZM66.4437 9.73382C67.3782 9.83406 67.7501 10.3207 67.7011 11.1594C67.701 11.3461 67.7178 11.5325 67.7513 11.7162C67.8437 12.4568 67.9974 12.5994 68.865 12.7252C68.7536 11.9534 68.6511 11.1928 68.5409 10.3954L68.9273 10.3575C69.5599 10.3074 69.9352 9.92872 70.1413 9.3663C70.3473 8.80388 70.2337 8.22252 69.7403 7.91848C68.7892 7.3438 67.7702 6.87939 66.7589 6.35928L64.7064 10.9723L65.6686 11.3966L66.4437 9.73382ZM3.39776 47.4997L8.38607 47.9285C8.41169 47.5443 8.43285 47.2391 8.45623 46.8994L6.62307 46.6834C6.55068 45.5608 6.5529 45.5552 7.48062 45.1064L8.0308 44.8413C8.74914 44.4983 8.84715 44.2945 8.6812 43.4313L6.62752 44.4838C6.58136 44.42 6.53861 44.3539 6.49945 44.2856C6.15642 43.5706 5.68755 43.2732 4.97923 43.3222C4.36001 43.3645 3.87555 43.7432 3.74413 44.4849C3.5715 45.4605 3.51136 46.4562 3.39776 47.4997ZM34.8779 89.2215C34.5092 90.0201 35.1919 89.9076 35.5004 90.0368C36.0217 90.2595 36.28 90.7429 36.0918 91.3175C35.9036 91.8922 35.5272 91.8644 35.0817 91.6583C35.0394 91.6383 34.977 91.6583 34.928 91.6683C34.4692 92.9758 35.1118 93.7922 37.0942 94.4103C37.0162 94.7622 36.9394 95.1186 36.8514 95.5173L37.7969 95.8102C38.1978 94.2321 38.5832 92.7175 38.9674 91.2084L39.6 91.3198C39.6412 91.1371 39.6791 90.9712 39.7214 90.7818L34.8779 89.2215ZM51.3419 3.45807V7.0754C51.2305 7.01192 51.1893 7.00189 51.1748 6.97628C50.6402 6.00067 50.1067 5.02432 49.5744 4.04722C49.1556 3.27876 48.9708 3.20637 48.0152 3.46809V8.31384H48.8917V4.82905C49.5599 5.77904 50.0845 6.75242 50.6146 7.72469C51.0311 8.49092 51.2761 8.5867 52.2128 8.3183V3.45807H51.3419ZM7.0808 31.724L6.75226 32.5626L10.0678 33.9069C8.93513 34.1764 7.82031 34.3245 6.70548 34.476C5.82899 34.5952 5.71205 34.7199 5.57841 35.6933L10.1157 37.522L10.4498 36.6979L7.18326 35.3614C8.2031 35.1371 9.23394 34.9661 10.2716 34.8491C11.343 34.7155 11.343 34.721 11.6626 33.5817L7.0808 31.724ZM12.0279 32.6317C12.4144 31.8577 12.8242 31.1694 13.1127 30.4332C13.5414 29.3407 13.0971 28.2927 12.0201 27.6412C10.8819 26.9518 9.75927 27.0075 9.00529 27.9396C8.44844 28.6301 8.0553 29.4543 7.56861 30.2528L12.0279 32.6317ZM88.9485 35.4828C89.2625 36.3159 89.4987 37.1199 89.8617 37.8617C90.3484 38.854 91.3998 39.2059 92.5859 38.8785C93.8488 38.5299 94.5705 37.7403 94.438 36.5976C94.3266 35.6788 93.9992 34.7867 93.7564 33.8345L88.9485 35.4828ZM79.2403 79.2171C78.0709 80.4756 76.9572 81.675 75.8357 82.8533C75.5405 83.1629 75.6185 83.3389 75.9203 83.5216C76.4905 83.2487 76.7857 82.1706 77.6555 82.9536C78.3237 83.5505 77.778 83.986 77.2311 84.5317C77.759 84.7689 78.1611 85.064 78.5965 85.1242C79.561 85.2567 80.0321 84.4482 80.6268 83.8501L81.2895 84.6297L82.0691 83.9615L79.2793 80.3241L79.7136 79.7839L79.2403 79.2171ZM10.1602 69.9555C10.5845 69.7917 11.0512 69.6937 11.4254 69.4532C12.4667 68.7849 12.548 67.4596 11.6403 66.6578C11.1995 66.2809 10.6353 66.0797 10.0555 66.0926C9.47567 66.1055 8.92097 66.3317 8.49744 66.7279C7.76573 67.434 7.75126 68.4842 8.46848 69.2059C8.92288 69.6637 9.48196 69.873 10.1602 69.9555ZM90.0132 69.8652C91.2115 69.853 92.1448 69.0211 92.1381 67.9719C92.1326 66.9373 91.167 66.0909 89.9898 66.0909C88.7903 66.0909 87.8147 66.964 87.8348 68.0232C87.8582 69.05 88.8304 69.8764 90.0176 69.8652H90.0132ZM89.2202 25.4538C89.2202 24.104 88.0241 22.7976 86.7946 22.8054C85.339 22.8155 83.949 24.0918 83.9624 25.4059C83.9758 26.7201 85.1418 27.9675 86.3936 27.9808C87.8381 27.9931 89.2247 26.7535 89.2247 25.4538H89.2202ZM22.7474 12.5972C21.4632 12.5972 20.1324 13.849 20.1235 15.0752C20.1134 16.4183 21.4532 17.8472 22.7362 17.8594C24.0426 17.875 25.3278 16.6578 25.3512 15.3837C25.3746 14.0461 24.027 12.6016 22.7474 12.5972ZM91.5111 53.9503H96.4304V52.9346C95.8802 52.9346 95.3634 52.9536 94.85 52.9213C94.7231 52.9135 94.5081 52.742 94.5025 52.6362C94.468 52.0526 94.4858 51.4668 94.4858 50.842H96.5017V49.7728H91.5768V50.8097H93.6628C93.6628 51.4022 93.6428 51.9234 93.6695 52.4335C93.6918 52.84 93.5169 52.9391 93.1449 52.9213C92.6126 52.8945 92.0791 52.9146 91.5067 52.9146L91.5111 53.9503ZM20.9376 20.059L21.6671 19.2794L18.0898 15.8269L17.2946 16.6578C17.8036 17.1211 18.2769 17.5487 18.7658 17.9942L17.2902 19.442L15.868 18.1056L15.1463 18.8841L18.7302 22.3421L19.5031 21.5302L17.8972 20.0824L19.4563 18.648L20.9376 20.059ZM81.8263 79.9577L81.7016 80.039C81.7316 80.313 81.7227 80.8097 81.7985 80.8186C82.2317 80.8943 82.7262 80.9678 83.1204 80.8186C83.5782 80.6526 83.5559 80.3285 83.243 79.9064C83.1583 79.7951 83.1004 79.5523 83.1628 79.4498C83.3187 79.1915 83.5503 78.9787 83.7708 78.7248L85.4214 80.4644L86.0896 79.6492L82.9879 76.3582L83.4334 75.7289L83.0514 75.3603L79.6902 79.4342L80.0555 79.8296L80.8641 78.9453L81.8263 79.9577ZM38.924 6.87827L36.3535 7.53202C36.2422 7.09767 36.1453 6.73126 36.0384 6.3203L38.7747 5.5808C38.679 5.28121 38.6099 5.0607 38.5297 4.80789L34.7854 5.81022L36.0773 10.6203L40.011 9.5779L39.7882 8.79831L36.8837 9.5534C36.7723 9.10792 36.6877 8.73594 36.5941 8.34503L39.1323 7.62891C39.0576 7.36162 38.9997 7.15224 38.924 6.87827ZM94.7643 40.754C94.9402 41.7129 95.1051 42.6128 95.2777 43.5516L96.0573 43.3846C95.8345 42.0893 95.6118 40.8553 95.3824 39.5601L90.4821 40.4321C90.7193 41.8009 90.9454 43.105 91.1792 44.4415L91.9588 44.2733C91.7951 43.2821 91.6403 42.3388 91.4755 41.3409L92.7006 41.1349C92.8665 42.0258 93.0202 42.8544 93.1839 43.732L93.9747 43.585C93.8154 42.6785 93.6706 41.8465 93.5191 40.9801L94.7643 40.754ZM62.0858 5.90266L64.8244 6.60653C64.8968 6.3203 64.9525 6.09645 65.0193 5.83361L61.255 4.83127C60.8173 6.47956 60.4052 8.0343 59.9753 9.65141L63.8978 10.6916C63.9657 10.3998 64.0181 10.176 64.0793 9.91202L61.2171 9.1146C61.334 8.68471 61.4399 8.3183 61.5512 7.90623L64.1283 8.58893C64.1974 8.29157 64.2497 8.0666 64.3121 7.79485C63.8488 7.67123 63.4401 7.5632 63.0313 7.45183C62.6226 7.34046 62.2194 7.22909 61.7662 7.10101C61.8742 6.68226 61.9733 6.31919 62.0858 5.90266ZM19.267 78.2181C19.2756 78.2588 19.2886 78.2983 19.306 78.3361C19.8796 78.9687 20.4342 79.618 21.0322 80.2294C21.4064 80.6103 21.304 80.8386 20.9053 81.0725C20.7026 80.8219 20.5255 80.5847 20.3284 80.3653C19.9642 79.9599 19.5243 79.7884 18.9786 79.9632C18.1054 80.2406 17.71 81.2663 18.199 82.1617C18.4217 82.5727 18.7681 82.9146 19.0721 83.3044L18.376 84.153L19.1835 84.8135C20.1368 83.7042 21.102 82.5782 22.0791 81.4356L22.7006 82.0114L23.0536 81.6138L19.6011 77.8483L19.267 78.2181ZM24.4324 10.7852C24.9759 11.7686 25.4681 12.6996 25.9983 13.6095C26.5095 14.4849 27.2824 14.7477 28.2346 14.4203C29.4274 14.0105 30.1535 13.1173 30.0511 12.1784C30.0419 12.0497 30.0107 11.9234 29.9586 11.8053C29.4151 10.7584 28.8627 9.71601 28.2947 8.63682L27.3637 9.18365C27.866 10.1013 28.3426 10.96 28.8115 11.8243C29.0543 12.2775 29.1323 12.7364 28.7536 13.1674C28.1756 13.8267 27.3592 13.7788 26.9037 13.0215C26.3714 12.1305 25.8836 11.2217 25.3545 10.2818C25.0472 10.4477 24.7765 10.5969 24.4324 10.7852ZM69.9263 12.0281L69.7236 12.1027C69.8027 12.4624 69.7905 12.8823 69.9776 13.1696C70.2497 13.6153 70.6343 13.9816 71.0927 14.2318C71.551 14.482 72.0671 14.6073 72.5892 14.5952C72.91 14.5952 73.2975 14.3613 73.5359 14.1185C74.0315 13.614 74.0337 12.9647 73.5659 12.4056C73.1873 11.9523 72.7117 11.5815 72.3286 11.1315C72.1994 10.9801 72.1671 10.686 72.2027 10.4778C72.2217 10.3664 72.5302 10.1838 72.6193 10.2261C72.9879 10.3965 73.5425 10.5791 73.6216 10.8698C73.792 11.4812 74.213 11.538 74.6696 11.6895C74.9269 11.1482 74.8478 10.6215 74.4179 10.3141C73.8351 9.90091 73.198 9.57034 72.5246 9.33178C72.0112 9.14913 71.5512 9.44315 71.2572 9.91313C70.9632 10.3831 70.9231 10.872 71.2683 11.3164C71.5523 11.6772 71.9087 11.9846 72.2239 12.3187C72.4162 12.4964 72.5846 12.6981 72.7251 12.919C72.7737 12.9991 72.8003 13.0905 72.8023 13.1841C72.8042 13.2777 72.7815 13.3702 72.7363 13.4522C72.6911 13.5342 72.6251 13.6029 72.5449 13.6512C72.4647 13.6996 72.3732 13.7259 72.2796 13.7276C71.8252 13.7699 70.9298 13.3021 70.8941 12.8734C70.8407 12.1862 70.3339 12.204 69.9263 12.0281ZM45.3189 3.53046C45.4425 4.55507 45.5817 5.52623 45.6731 6.50184C45.7521 7.35494 45.3724 7.8149 44.5983 7.88618C43.9112 7.94966 43.5258 7.56877 43.4178 6.7179C43.2964 5.76568 43.1772 4.81345 43.0503 3.80555L41.9867 3.94142C42.146 5.13086 42.2618 6.27353 42.4645 7.4006C42.6015 8.16238 43.1806 8.63459 43.9513 8.68248C44.3944 8.71366 44.8398 8.67761 45.2721 8.57557C46.3858 8.29602 46.8803 7.51643 46.74 6.37042C46.662 5.74452 46.5908 5.1175 46.5117 4.49271C46.466 4.13409 46.4092 3.7777 46.3535 3.38679L45.3189 3.53046ZM30.9309 11.6238C31.2929 12.1261 31.755 12.321 32.2763 12.2352C32.7491 12.1574 33.209 12.0146 33.6428 11.8109C34.7008 11.3108 35.0806 10.6248 34.8144 9.82403C34.536 8.98318 33.9034 8.73149 32.6984 8.96536C32.3388 9.05166 31.9718 9.10313 31.6025 9.11906C31.1492 9.11906 30.8474 8.62011 31.1425 8.37955C31.4577 8.12229 32.0067 7.81156 32.2907 7.92627C32.9178 8.17908 33.1984 7.83829 33.7219 7.44181C33.2663 7.23466 32.9178 6.95178 32.5614 6.94064C31.6492 6.9128 30.8685 7.3115 30.2671 7.99866C29.933 8.38178 29.9196 8.8384 30.1324 9.30282C30.3451 9.76724 30.6837 10.0657 31.1982 10.0635C31.6013 10.0635 32.0045 9.97327 32.4088 9.92984C32.7195 9.89643 33.038 9.81847 33.3421 9.85633C33.4407 9.86116 33.5361 9.89288 33.618 9.94805C33.6999 10.0032 33.7651 10.0797 33.8067 10.1693C33.8482 10.2589 33.8644 10.3582 33.8536 10.4563C33.8428 10.5544 33.8053 10.6478 33.7452 10.7261C33.5024 11.0881 32.6159 11.5057 32.2696 11.2986C31.676 10.9455 31.3552 11.3097 30.9309 11.6238ZM16.9193 24.5361C15.3245 24.0194 13.7809 23.4926 12.2195 23.0259C11.7149 22.8756 11.6626 23.4714 11.431 23.7287C11.3374 23.8334 11.3485 24.1519 11.4399 24.2856C12.0156 25.1275 12.626 25.945 13.2218 26.7702C13.5659 27.2436 13.9134 27.7147 14.2665 28.1969C14.9347 27.4719 14.9347 27.4719 14.6707 27.0966C14.1417 26.3303 14.1417 26.3303 14.6897 25.5741C14.737 25.5174 14.7799 25.4571 14.8177 25.3937C15.0015 25.0295 15.251 24.9816 15.6341 25.1208C16.446 25.4137 16.4549 25.3926 16.9193 24.5361ZM9.85505 38.6179C9.79251 38.598 9.72784 38.5857 9.66238 38.5811C8.1121 38.7159 6.56181 38.8685 5.01153 38.9798C4.60391 39.011 4.59723 39.2939 4.56605 39.5567C4.52595 39.8697 4.22636 40.2172 4.7008 40.4822C5.34787 40.8431 5.97266 41.2429 6.60859 41.6249C7.35032 42.0704 8.09205 42.5159 8.84269 42.9614C9.20242 42.0325 9.22358 41.988 8.65893 41.7251C8.09428 41.4623 7.92834 41.1249 8.16556 40.5613C8.22017 40.4228 8.25286 40.2766 8.26245 40.1281C8.29475 39.7416 8.49187 39.6124 8.87833 39.598C9.73923 39.5712 9.73811 39.5501 9.85505 38.6179ZM15.2866 76.2891C14.977 77.5365 14.6485 78.7515 14.3801 79.9811C14.2553 80.5524 14.5226 80.7907 15.1686 80.8152C15.3189 80.0691 15.4704 79.3206 15.6241 78.5644C16.6442 78.8885 16.8614 79.8831 17.5753 80.5034L17.9306 80.1693C17.5319 79.6124 17.1911 79.138 16.8336 78.6413L17.896 77.6568L18.552 78.4542L18.9218 78.0655L16.3235 74.5673L15.9259 74.9415C16.3714 75.5663 16.8057 76.1666 17.2523 76.7814L16.0707 77.8951L15.9181 77.7982C15.9389 77.6127 15.9724 77.4289 16.0183 77.248C16.2288 76.5965 16.1074 76.4005 15.2866 76.2891ZM88.317 29.6837C88.7246 30.4343 89.0966 31.1315 89.5031 31.871L90.2014 31.4913C89.8138 30.7428 89.4485 30.0434 89.061 29.2939L90.3829 28.5889L91.608 30.8564L92.3163 30.4678L90.6079 27.2592L86.201 29.598C86.3903 29.9421 86.5351 30.2138 86.7122 30.5257L88.317 29.6837ZM55.6642 3.74652C55.9894 5.39592 56.3112 6.9941 56.6164 8.59561C56.6988 9.02439 57.0541 8.96536 57.3124 8.98096C57.5007 8.99209 57.7891 8.86959 57.8771 8.72146C58.5331 7.60107 59.1501 6.4584 59.7782 5.32131C59.9341 5.03842 60.0834 4.75109 60.2404 4.45707C59.2815 4.16862 59.2804 4.16862 58.8828 4.96715C58.3905 5.95389 57.9005 6.94175 57.3392 8.06994C57.1543 6.8237 56.9973 5.73115 56.828 4.64083C56.6877 3.75988 56.6877 3.761 55.6642 3.74652ZM80.4743 21.6494C80.697 21.342 80.8841 21.0836 81.079 20.8342C81.549 20.2361 82.1771 19.9488 82.9222 19.8185C83.6673 19.6882 84.3912 19.4721 85.1496 19.2883C84.5994 18.472 84.6006 18.4731 83.7385 18.6947C83.2118 18.8306 82.6828 18.9587 82.068 19.1124C82.2707 18.4375 82.4377 17.8873 82.6014 17.3393C82.803 16.6611 82.7128 16.4573 82.0179 16.0887C81.4309 17.747 81.4799 19.7238 79.5677 20.6905L80.4743 21.6494ZM78.8883 14.4214L76.2154 17.6078C76.5161 17.8561 76.7634 18.0621 77.034 18.2849L79.7069 15.113L80.932 16.1076L81.4398 15.485L78.2157 12.7787L77.6922 13.3857L78.8883 14.4214ZM91.3463 45.2779C91.4577 46.5286 91.569 47.698 91.6804 48.903L92.46 48.8417C92.401 47.9786 92.3486 47.1578 92.284 46.2802L96.4181 45.8848L96.3068 44.8469L91.3463 45.2779ZM31.8386 93.7476L33.6439 89.3852L34.4291 89.7383C34.4892 89.6269 34.5404 89.5523 34.5727 89.4699C34.6 89.3886 34.6219 89.3056 34.6384 89.2215L32.1883 87.9252C32.1047 88.1056 32.0491 88.2192 32.0012 88.3372C31.99 88.3662 32.009 88.4074 32.0145 88.4486C32.7273 88.9431 32.7273 88.942 32.3899 89.7583L30.942 93.2654L31.8386 93.7476ZM74.4725 16.3448L77.3314 12.2508L76.4515 11.6483C75.4782 13.0393 74.5471 14.3702 73.5982 15.7245L74.4725 16.3448ZM54.36 8.54884C54.4714 6.87827 54.5905 5.23778 54.7075 3.56499L53.6472 3.50262C53.5359 5.17875 53.4245 6.79474 53.3131 8.45417L54.36 8.54884ZM8.34041 48.8807L3.42338 48.6992L3.37215 49.7639L8.34041 49.9376V48.8807ZM96.0517 56.6321C96.0985 56.2423 96.1364 55.9261 96.1787 55.5775L91.255 54.9727C91.2037 55.3636 91.1637 55.6654 91.1169 56.0218L96.0517 56.6321ZM77.3603 85.1531C77.2673 85.4062 77.1602 85.6538 77.0396 85.8949C76.9004 86.1343 76.7511 86.5041 76.5507 86.5453C76.0829 86.6411 75.8223 86.2713 75.6909 85.8537C75.5673 85.4639 75.5795 85.1253 76.0651 84.9627C76.2555 84.9003 76.417 84.7511 76.5997 84.6364C76.1341 84.0873 76.0428 84.0918 75.3879 84.6308C74.6451 85.24 74.5237 86.2791 75.1095 87.003C75.5996 87.6066 76.3881 87.61 77.1298 87.0108C77.8325 86.4473 77.9439 85.8882 77.3603 85.1531ZM75.1919 83.2699C74.5705 83.7766 74.0136 84.2555 73.4289 84.6999C73.0837 84.9616 73.0781 85.1665 73.4557 85.4282C74.1373 84.8647 74.8133 84.3045 75.4971 83.7365C75.398 83.575 75.3133 83.4547 75.1919 83.2699Z" fill="white"/>
<path d="M49.979 88.7704C28.5234 88.7626 11.1807 71.372 11.2041 49.8942C11.2275 28.5466 28.6225 11.1894 49.9902 11.2028C71.4269 11.2172 88.7874 28.5956 88.7662 50.02C88.7462 71.4222 71.3701 88.7816 49.979 88.7704ZM87.3061 50.0055C87.324 29.4019 70.6473 12.7107 50.0191 12.6795C29.4356 12.6472 12.6965 29.3206 12.6742 49.883C12.6497 70.5724 29.3086 87.2836 49.9835 87.3037C70.5571 87.3282 87.2872 70.6092 87.3061 50.0055Z" fill="#5C3713"/>
<path d="M66.5308 89.5156C66.4528 89.2806 66.3871 89.0801 66.308 88.8273L63.5627 90.0635C63.2676 89.7406 63.2888 89.5278 63.7019 89.3619C64.1151 89.196 64.496 88.9988 65.0206 88.756C64.2143 88.354 63.5327 88.0043 62.7586 88.08C62.5359 88.1012 62.1918 88.4409 62.1661 88.6647C62.126 89.0155 62.2664 89.412 62.429 89.7406C62.4668 89.8174 62.8967 89.7016 63.1573 89.6726C63.565 90.293 62.87 90.2039 62.6261 90.4656C62.9992 91.9602 63.379 93.4815 63.7699 95.044L62.8288 95.3626C62.4267 93.8034 62.0358 92.291 61.6371 90.7507L60.9377 90.9022C60.4655 90.2941 61.1025 90.3264 61.3832 90.1404C61.3799 90.0527 61.3649 89.9658 61.3387 89.882C60.6938 88.5455 61.5759 87.3539 63.144 87.306C64.0294 87.2793 64.8145 87.6312 65.5596 88.0566C65.9037 88.2526 66.1911 88.2849 66.5341 88.08C66.8036 87.9196 67.091 87.7337 67.3905 87.6891C69.4554 87.3762 70.8553 85.7657 72.7219 85.0095C72.7628 85.0579 72.8 85.1093 72.8332 85.1632C72.8745 85.2434 72.9023 85.3292 72.9446 85.435L72.2597 85.9172L74.2543 90.1738L73.3879 90.7039C72.9012 89.7016 72.439 88.7371 71.9557 87.7337C71.5881 87.9497 71.2729 88.1379 70.9533 88.3206C70.4978 88.5834 70.4733 88.9387 70.725 89.3552C71.1627 90.0802 71.8387 90.4622 72.6317 90.6505C72.5693 91.3465 72.331 91.5225 71.7496 91.3187C70.9411 91.0347 70.2383 90.6059 69.8118 89.8274C69.3852 89.0489 69.5378 88.501 70.2795 88.0455C70.7049 87.7827 71.1304 87.5191 71.5558 87.2548C71.5976 87.2171 71.6349 87.1749 71.6672 87.1289C71.5837 86.9385 71.489 86.7257 71.3609 86.4373C70.5034 86.9518 69.6904 87.4485 68.8629 87.9319C68.6646 88.0433 68.5187 88.2059 68.188 88.0433C67.7804 87.8428 67.297 88.4308 67.4451 88.8685C67.5287 89.1113 67.6111 89.3552 67.7102 89.6481C67.2725 89.8553 66.8593 90.0524 66.445 90.2473C65.8436 90.5291 65.6743 90.8509 65.8559 91.3699C66.053 91.9346 66.4406 92.1295 67.1177 91.9802C67.0364 91.5537 66.9072 91.1082 67.4518 90.8465C67.9964 90.5848 68.5444 90.8331 68.4441 91.4033C68.3238 92.0838 68.7359 92.3221 69.1357 92.6351C69.207 92.6908 69.2772 92.7465 69.3518 92.8088C68.5132 93.4114 68.4608 93.4292 67.7926 92.7543C67.5231 92.4814 67.3081 92.5995 67.0464 92.683C65.9717 93.026 65.1754 92.6162 64.8825 91.576C64.6787 90.852 64.9248 90.3019 65.5997 89.9733L66.5308 89.5156Z" fill="#5C3713"/>
<path d="M23.3877 83.0115C23.3409 82.5772 22.4488 82.4547 23.1293 81.8633C25.6908 84.2511 28.5932 86.1822 31.6525 87.8706C31.6361 87.9627 31.6135 88.0535 31.5846 88.1424C31.5394 88.2332 31.4896 88.3217 31.4354 88.4074L30.8651 88.129L28.8449 92.3834L27.9817 91.8555L28.4462 90.7908C27.4126 90.3642 26.5529 89.8085 26.5317 88.5255C26.0005 88.9142 25.4525 88.8819 24.9402 88.6859C24.3444 88.4631 23.8131 88.1023 23.5759 87.4608C23.3387 86.8193 23.5637 86.3471 24.1773 85.974C24.3188 85.298 24.4546 84.7367 24.5415 84.1675C24.5638 84.0205 24.4301 83.849 24.3188 83.5316L21.5345 87.3851L20.7549 86.6812L23.3877 83.0115ZM25.7153 84.7244L25.5216 84.6342C25.4002 84.8993 25.1941 85.1599 25.1808 85.4305C25.1853 85.7049 25.294 85.9672 25.4848 86.1644C25.8056 86.4818 26.3758 86.6166 26.1152 87.3082C25.8334 87.1456 25.5739 86.9741 25.2966 86.8416C24.9447 86.6712 24.6195 86.7168 24.4869 87.1244C24.3644 87.5042 24.4747 87.8517 24.899 87.953C25.1785 88.0188 25.4837 87.9798 25.7777 87.9831C26.0394 87.9831 26.3012 87.9831 26.584 87.9831L26.7812 87.649C27.1153 87.7426 27.4227 87.9352 27.6788 87.8807C28.1766 87.7693 28.3593 86.6912 27.9506 86.3705C27.5207 86.0364 27.0529 85.7446 26.5818 85.4227L26.2243 85.8147C25.9793 85.6332 25.7588 85.4695 25.5427 85.3113C25.6151 85.0875 25.663 84.907 25.7165 84.7244H25.7153ZM27.5274 88.7549C27.4706 89.2605 27.5073 89.7673 27.9951 89.8987C28.2891 89.9778 28.8315 89.8118 28.9974 89.5724C29.4028 88.9721 29.6568 88.2682 29.9864 87.5744L29.1901 87.1044C28.7413 88.6669 28.6789 88.7293 27.5285 88.7549H27.5274Z" fill="#5C3713"/>
<path d="M60.1491 90.7773C60.0867 90.9277 60.0377 91.2228 59.9441 91.2395C59.4574 91.3297 59.5554 91.6405 59.61 91.9534C59.8068 93.0849 60.0032 94.2168 60.1992 95.3491C60.2393 95.583 60.2638 95.8213 60.3027 96.1042L59.3605 96.3459C59.2091 95.5095 59.0654 94.7165 58.9062 93.8412L57.876 94.0338C57.8863 94.1717 57.8863 94.3102 57.876 94.4481C57.8426 94.6475 57.837 94.9671 57.7267 95.0128C57.4934 95.1064 57.2329 95.1064 56.9995 95.0128C56.7289 94.8802 56.5028 94.6319 56.2945 94.3991C56.0862 94.1664 56.0784 93.8835 56.3981 93.7632C56.7467 93.6307 56.7055 93.4101 56.6531 93.1462C56.5841 92.8043 56.5206 92.4613 56.4493 92.086L54.9391 92.2753C54.9391 92.4557 54.9258 92.6695 54.9391 92.88C55.026 94.0071 55.1218 95.1331 55.2086 96.2612C55.2766 97.1522 55.2287 97.1923 54.282 97.072L54.1439 96.1699C53.8098 96.5263 53.5448 96.8058 53.2786 97.0787C52.8153 97.5509 52.6516 97.542 52.1649 96.9529L53.4423 95.7946C52.0825 95.4683 51.8675 95.1965 51.7717 93.8233C51.7439 93.4191 51.7027 93.0159 51.6659 92.5871H50.9977C50.9721 92.41 50.9498 92.253 50.9331 92.1416L60.1491 90.7773ZM52.6549 92.4479C52.7117 93.144 52.7084 93.761 52.8342 94.3501C52.891 94.6141 53.2073 94.8223 53.4055 95.0551C53.6149 94.7989 53.9824 94.555 54.0025 94.2844C54.0504 93.6552 53.9323 93.0126 53.8778 92.3243L52.6549 92.4479ZM57.4194 91.812C57.5207 92.3922 57.6087 92.8912 57.7033 93.4291L58.8003 93.1696C58.7012 92.6127 58.6144 92.1327 58.5197 91.6026L57.4194 91.812Z" fill="#5C3713"/>
<path d="M46.453 92.4602L42.1942 91.9034C41.9258 93.4225 41.654 94.9661 41.3689 96.5809L40.4033 96.3582C40.6706 94.7645 40.9312 93.2164 41.1963 91.6394L40.3833 91.4022C40.4 91.2396 40.4156 91.0825 40.4356 90.8732C41.7353 91.1226 42.9972 91.4111 44.2668 91.596C45.5364 91.7808 46.8473 91.8655 48.1726 91.9969V92.5259L47.4565 92.5705C47.3295 94.143 47.2037 95.7067 47.0734 97.3293L46.0855 97.2603C46.1601 96.249 46.2325 95.2801 46.3082 94.2533L45.1845 94.0996C45.1522 94.3535 45.1232 94.5629 45.0987 94.7678C45.0419 95.2467 44.6199 95.4539 44.288 95.1019C43.978 94.7612 43.734 94.3658 43.5685 93.9359C43.4204 93.5639 43.6799 93.3902 44.0563 93.4202C44.7925 93.4781 45.5286 93.5438 46.3272 93.6118C46.3684 93.2342 46.4074 92.8745 46.453 92.4602Z" fill="#5C3713"/>
<path d="M3.71217 56.3849C3.47384 55.0485 3.47495 55.0485 4.60314 54.603C5.39499 54.2911 6.18461 53.9704 6.97423 53.6519C6.98648 53.6519 6.99094 53.624 7.02323 53.5639L4.21668 52.8801C3.37249 52.6785 3.37138 52.6785 3.34131 51.7875C3.34131 51.6594 3.34131 51.5325 3.34131 51.3298L8.26836 50.9723C8.29509 51.283 8.31736 51.5291 8.34632 51.8633L4.75015 52.1383L4.74458 52.2063C5.81597 52.4791 6.88736 52.7542 7.95986 53.0237C8.2149 53.0883 8.43876 53.1251 8.4744 53.4848C8.51226 53.8657 8.29843 53.9604 8.02891 54.0684C7.00207 54.4771 5.97857 54.8937 4.96732 55.3971L8.55013 55.1465L8.63366 56.0374L3.71217 56.3849Z" fill="#5C3713"/>
<path d="M66.4439 9.73384L65.6643 11.3966L64.7065 10.9723L66.7602 6.36487C67.7715 6.88608 68.7905 7.3505 69.7416 7.92406C70.235 8.22365 70.3497 8.79832 70.1426 9.37188C69.9354 9.94545 69.5612 10.313 68.9286 10.3631L68.5455 10.3943C68.6569 11.1917 68.7616 11.9535 68.8696 12.7242C67.9987 12.5983 67.845 12.4557 67.7559 11.7151C67.7224 11.5314 67.7056 11.345 67.7058 11.1583C67.7503 10.3208 67.3794 9.83407 66.4439 9.73384ZM66.7981 8.91749C67.2993 9.13021 67.747 9.34404 68.2114 9.50998C68.5934 9.64697 68.8952 9.50998 69.0767 9.13021C69.2705 8.72593 69.1024 8.42969 68.7638 8.23924C68.3328 8.00425 67.8728 7.82383 67.3806 7.60109C67.1768 8.06662 66.9997 8.46421 66.7981 8.91749Z" fill="#5C3713"/>
<path d="M3.39795 47.4997C3.50932 46.4562 3.57169 45.4605 3.74431 44.4849C3.87573 43.7432 4.36019 43.3645 4.97942 43.3222C5.68774 43.2732 6.15661 43.5706 6.49963 44.2856C6.53879 44.3539 6.58154 44.42 6.62771 44.4838L8.68696 43.4347C8.8529 44.2978 8.75489 44.5016 8.03655 44.8446L7.48081 45.1052C6.55309 45.5507 6.55086 45.5596 6.62325 46.6823L8.45642 46.8983C8.43303 47.238 8.41187 47.5432 8.38626 47.9274L3.39795 47.4997ZM5.76904 46.6288C5.80579 46.0374 5.86482 45.5418 5.85702 45.0473C5.85145 44.6687 5.60755 44.4459 5.21775 44.4081C4.82795 44.3702 4.55732 44.5651 4.49161 44.936C4.40363 45.4371 4.38024 45.9505 4.3201 46.5185L5.76904 46.6288Z" fill="#5C3713"/>
<path d="M34.8778 89.2216L39.718 90.7808C39.6757 90.9701 39.6378 91.136 39.5966 91.3187L38.964 91.2073C38.5798 92.7164 38.1945 94.231 37.7935 95.8092L36.848 95.5162C36.936 95.1175 37.0128 94.7612 37.0908 94.4092C35.1084 93.7911 34.4658 92.9748 34.9246 91.6673C34.9736 91.6673 35.036 91.6372 35.0783 91.6572C35.5238 91.8633 35.9069 91.88 36.0918 91.3164C36.2766 90.7529 36.0216 90.254 35.5004 90.0357C35.193 89.9076 34.5092 90.0201 34.8778 89.2216ZM35.8156 92.6006C35.879 93.0683 35.9882 93.5751 36.4637 93.5962C36.7823 93.6096 37.2857 93.3156 37.4093 93.0304C37.6977 92.3622 37.8069 91.6238 38.0018 90.8609L37.1331 90.5836C37.0095 92.2152 36.9749 92.2731 35.8156 92.6006Z" fill="#5C3713"/>
<path d="M51.3422 3.4581H52.2131V8.31833C51.2765 8.58673 51.0315 8.49096 50.615 7.72472C50.0848 6.75245 49.5547 5.77907 48.8921 4.82908V8.31388H48.02V3.46812C48.9711 3.2064 49.156 3.27879 49.5792 4.04725C50.1131 5.02361 50.6465 5.99996 51.1796 6.97631C51.1941 7.00193 51.2375 7.01195 51.3467 7.07543L51.3422 3.4581Z" fill="#5C3713"/>
<path d="M7.08101 31.724L11.6595 33.5839C11.3398 34.7232 11.3398 34.7176 10.2684 34.8513C9.2308 34.9683 8.19997 35.1393 7.18013 35.3636L10.4466 36.7001L10.1125 37.5242L5.57861 35.6933C5.71226 34.7199 5.8292 34.5951 6.70569 34.476C7.8194 34.3245 8.93311 34.1764 10.068 33.9069L6.75246 32.5626L7.08101 31.724Z" fill="#5C3713"/>
<path d="M12.0281 32.6317L7.57324 30.2528C8.05993 29.4543 8.45196 28.6301 9.00993 27.9396C9.76391 27.0075 10.8865 26.9518 12.0247 27.6412C13.1017 28.2927 13.5461 29.3407 13.1173 30.4332C12.8222 31.1694 12.4123 31.8577 12.0281 32.6317ZM11.7719 31.2875C12.1751 30.6059 12.6506 29.9944 12.1729 29.2416C11.7508 28.5733 11.1082 28.1824 10.3074 28.2392C9.44316 28.2983 9.18033 29.0188 8.85958 29.7294L11.7719 31.2875Z" fill="#5C3713"/>
<path d="M88.9463 35.4828L93.7542 33.8345C93.997 34.7867 94.3288 35.6788 94.4358 36.5976C94.5683 37.7403 93.8466 38.5299 92.5837 38.8785C91.3976 39.2059 90.3462 38.854 89.8595 37.8616C89.4965 37.1199 89.2604 36.3158 88.9463 35.4828ZM90.1112 36.2111C90.3161 36.9362 90.4342 37.65 91.255 37.8895C91.9166 38.081 92.9256 37.7781 93.3254 37.2369C93.8522 36.5419 93.5259 35.8726 93.2463 35.1364L90.1112 36.2111Z" fill="#5C3713"/>
<path d="M79.2406 79.217L79.7184 79.785L79.284 80.3252L82.0739 83.9626L81.2943 84.6308L80.6316 83.8512C80.0369 84.4493 79.5658 85.2578 78.6013 85.1253C78.1659 85.0651 77.7638 84.77 77.2359 84.5328C77.7827 83.9871 78.3251 83.5516 77.6602 82.9547C76.7904 82.1751 76.4953 83.2498 75.9251 83.5226C75.6233 83.34 75.5453 83.164 75.8404 82.8544C76.9575 81.675 78.0712 80.4755 79.2406 79.217ZM78.5601 81.1337L77.7905 81.753C78.8909 82.4602 78.9677 82.6907 78.6035 84.0728C78.9555 84.3022 79.323 84.359 79.6649 84.0728C79.9645 83.8245 80.0391 83.0627 79.7974 82.7364C79.3954 82.184 78.9622 81.655 78.5601 81.1337Z" fill="#5C3713"/>
<path d="M10.1602 69.9555C9.48192 69.8731 8.92284 69.6637 8.46845 69.206C7.75122 68.4843 7.7657 67.4341 8.4974 66.728C8.92094 66.3318 9.47564 66.1056 10.0554 66.0926C10.6353 66.0797 11.1995 66.2809 11.6403 66.6578C12.548 67.4597 12.4667 68.7861 11.4253 69.4532C11.05 69.6938 10.58 69.7918 10.1602 69.9555Z" fill="#5C3713"/>
<path d="M90.0176 69.8652C88.8304 69.8764 87.8581 69.0533 87.8392 68.0209C87.8191 66.9618 88.7947 66.0875 89.9942 66.0886C91.1714 66.0886 92.137 66.935 92.1425 67.9697C92.1492 69.021 91.2126 69.853 90.0176 69.8652Z" fill="#5C3713"/>
<path d="M89.2247 25.4539C89.2247 26.7536 87.8381 27.9931 86.3981 27.9809C85.1463 27.9697 83.9791 26.7335 83.9669 25.406C83.9546 24.0784 85.3434 22.8155 86.799 22.8055C88.0286 22.7977 89.2247 24.104 89.2247 25.4539ZM86.9138 23.8156C85.9671 23.8278 84.8913 24.7801 84.8823 25.6131C84.8745 26.3504 85.525 27.0075 86.2511 26.9963C87.2445 26.9808 88.3348 26.0207 88.3148 25.1777C88.2984 24.815 88.1444 24.4722 87.8841 24.2191C87.6238 23.966 87.2768 23.8217 86.9138 23.8156Z" fill="#5C3713"/>
<path d="M22.7475 12.5972C24.0271 12.5972 25.3747 14.045 25.3513 15.3815C25.328 16.6555 24.0427 17.8728 22.7364 17.8572C21.4534 17.8416 20.1136 16.4094 20.1236 15.073C20.1325 13.849 21.4634 12.5916 22.7475 12.5972ZM21.1282 14.9237C21.1393 15.8748 22.1583 16.9462 23.0337 16.9284C23.7454 16.9117 24.3913 16.2513 24.378 15.5541C24.3613 14.6553 23.3366 13.5494 22.5203 13.5427C21.7919 13.5327 21.1192 14.2009 21.1282 14.9237Z" fill="#5C3713"/>
<path d="M91.5112 53.9504V52.9146C92.0837 52.9146 92.6171 52.8946 93.1495 52.9213C93.5215 52.9391 93.6963 52.84 93.6741 52.4335C93.6473 51.9189 93.6674 51.4022 93.6674 50.8097H91.5769V49.7728H96.5018V50.842H94.486C94.486 51.4668 94.4681 52.0526 94.5027 52.6362C94.5082 52.742 94.7254 52.9135 94.8501 52.9213C95.3636 52.9536 95.8803 52.9346 96.4305 52.9346V53.9504H91.5112Z" fill="#5C3713"/>
<path d="M20.9378 20.059L19.4588 18.6479L17.8996 20.0824L19.5055 21.5302L18.7326 22.3421L15.1465 18.884L15.8659 18.1167L17.2881 19.4531L18.7638 18.0053C18.2749 17.5598 17.8016 17.1333 17.2926 16.6688L18.0878 15.838L21.665 19.2905L20.9378 20.059Z" fill="#5C3713"/>
<path d="M81.8263 79.9576L80.8618 78.9453L80.0533 79.8295L79.688 79.4342L83.0492 75.3602L83.4312 75.7289L82.9857 76.3581L86.0896 79.6491L85.4214 80.4644L83.7708 78.7392C83.5481 78.9932 83.3187 79.2059 83.1628 79.4643C83.1004 79.5667 83.1628 79.8062 83.2429 79.9209C83.5559 80.343 83.5771 80.6671 83.1204 80.833C82.7262 80.9767 82.2295 80.9032 81.7985 80.833C81.7227 80.8196 81.7316 80.3229 81.7016 80.0534L81.8263 79.9576ZM81.5234 78.1055L82.5814 79.2192C82.8576 78.8762 83.0848 78.5944 83.322 78.2982L82.2562 77.2068L81.5234 78.1055Z" fill="#5C3713"/>
<path d="M38.9242 6.87822C38.9999 7.15219 39.0578 7.36157 39.1325 7.63331L36.5943 8.35277C36.6879 8.74368 36.777 9.11121 36.8839 9.56114L39.7884 8.79825L40.0112 9.57785L36.0775 10.6225L34.7856 5.8124L38.5299 4.81006C38.6101 5.06287 38.6792 5.28339 38.775 5.58297L36.0386 6.32248C36.1499 6.73344 36.2413 7.10207 36.3537 7.53419L38.9242 6.87822Z" fill="#5C3713"/>
<path d="M94.7643 40.754L93.5259 40.9846C93.6773 41.851 93.8221 42.683 93.9814 43.5895L93.1906 43.7365C93.0269 42.8589 92.8732 42.0281 92.7073 41.1394L91.4822 41.3454C91.647 42.3477 91.8018 43.2866 91.9655 44.2778L91.186 44.446C90.9521 43.1039 90.726 41.8031 90.4888 40.4366L95.3891 39.5646C95.6118 40.8598 95.8346 42.0938 96.064 43.3891L95.2844 43.5561C95.1107 42.6128 94.9403 41.7129 94.7643 40.754Z" fill="#5C3713"/>
<path d="M62.0861 5.90272C61.9748 6.32036 61.8745 6.68231 61.762 7.10775C62.2153 7.2336 62.6207 7.3472 63.0272 7.45857C63.4337 7.56994 63.8447 7.68131 64.308 7.80159C64.2456 8.07334 64.1966 8.29831 64.1242 8.59567L61.5471 7.9074C61.4357 8.31947 61.3344 8.68699 61.213 9.11577L64.0752 9.91319C64.014 10.1716 63.9638 10.3954 63.8937 10.6928L59.9712 9.64924C60.4011 8.03213 60.8132 6.47739 61.2508 4.8291L65.0152 5.83144C64.9484 6.09428 64.8927 6.31813 64.8203 6.60435L62.0861 5.90272Z" fill="#5C3713"/>
<path d="M19.2671 78.2181L19.6012 77.8461L23.0537 81.6104L22.7006 82.008L22.0792 81.4322C21.0969 82.5771 20.1317 83.7031 19.1835 84.8101L18.3761 84.1497L19.0722 83.301C18.7681 82.9112 18.4195 82.5693 18.199 82.1584C17.7157 81.2674 18.111 80.2372 18.9786 79.9599C19.5243 79.785 19.9643 79.9599 20.3284 80.3619C20.5256 80.5847 20.7026 80.8186 20.9053 81.0691C21.304 80.8353 21.4065 80.607 21.0323 80.2261C20.4342 79.618 19.8796 78.9687 19.3061 78.3328C19.2889 78.2961 19.2759 78.2576 19.2671 78.2181ZM18.845 81.8142C18.845 82.2107 19.0777 82.4357 19.5199 82.4524C19.7905 82.4624 20.4844 81.8643 20.3819 81.6639C20.2204 81.3487 19.9966 80.9611 19.7036 80.8453C19.3473 80.705 18.8483 81.3375 18.8416 81.8142H18.845Z" fill="#5C3713"/>
<path d="M24.4326 10.7851C24.7768 10.5969 25.0474 10.451 25.3537 10.2784C25.8827 11.2183 26.3705 12.1316 26.9028 13.0181C27.3583 13.7754 28.1747 13.8233 28.7527 13.164C29.1314 12.733 29.0534 12.273 28.8106 11.8209C28.3462 10.9566 27.8695 10.098 27.3628 9.18025L28.2938 8.63342C28.8618 9.71261 29.4142 10.7495 29.9577 11.8019C30.009 11.9213 30.0391 12.0487 30.0468 12.1784C30.1493 13.1172 29.4231 14.0104 28.2304 14.4203C27.2781 14.7477 26.5052 14.4849 25.994 13.6095C25.4684 12.6962 24.9761 11.7685 24.4326 10.7851Z" fill="#5C3713"/>
<path d="M69.9266 12.028C70.3342 12.1995 70.8409 12.1817 70.8966 12.8655C70.9322 13.2943 71.8277 13.7565 72.2821 13.7197C72.3757 13.7181 72.4672 13.6917 72.5474 13.6434C72.6276 13.595 72.6936 13.5264 72.7388 13.4444C72.7839 13.3624 72.8067 13.2699 72.8047 13.1763C72.8028 13.0827 72.7761 12.9912 72.7275 12.9112C72.589 12.6931 72.4232 12.4936 72.2342 12.3176C71.919 11.9835 71.5659 11.6772 71.2786 11.3152C70.9289 10.8697 70.9768 10.3797 71.2675 9.91196C71.5581 9.4442 72.0214 9.14795 72.5349 9.3306C73.2082 9.56917 73.8454 9.89973 74.4282 10.3129C74.8581 10.6203 74.9371 11.1471 74.6799 11.6883C74.2232 11.5369 73.8023 11.4801 73.6319 10.8686C73.5517 10.578 72.9971 10.3953 72.6295 10.2249C72.5404 10.1826 72.2319 10.3652 72.213 10.4766C72.1774 10.686 72.213 10.9789 72.3389 11.1304C72.722 11.5758 73.1975 11.9512 73.5762 12.4044C74.0439 12.9613 74.0417 13.6128 73.5461 14.1173C73.3078 14.3601 72.9202 14.5929 72.5995 14.594C72.0774 14.6061 71.5613 14.4808 71.1029 14.2306C70.6446 13.9804 70.26 13.6141 69.9878 13.1684C69.8007 12.8778 69.813 12.4612 69.7339 12.1015L69.9266 12.028Z" fill="#5C3713"/>
<path d="M45.3193 3.53048L46.3539 3.38904C46.4096 3.77995 46.4653 4.13634 46.512 4.49495C46.5911 5.11974 46.6624 5.74676 46.7403 6.37267C46.8807 7.51867 46.3873 8.29827 45.2725 8.57781C44.8407 8.67888 44.3962 8.71418 43.9538 8.6825C43.1832 8.63461 42.604 8.1624 42.467 7.40062C42.2643 6.27355 42.1485 5.13088 41.9893 3.94144L43.0506 3.80557C43.1776 4.8079 43.2968 5.76569 43.4181 6.71792C43.5295 7.56879 43.9115 7.94968 44.5987 7.8862C45.3727 7.81492 45.7525 7.35496 45.6734 6.50186C45.5821 5.52625 45.4395 4.55509 45.3193 3.53048Z" fill="#5C3713"/>
<path d="M30.9311 11.6238C31.3554 11.3098 31.6762 10.9456 32.2676 11.2986C32.6139 11.5069 33.5004 11.0882 33.7432 10.7262C33.8031 10.648 33.8406 10.555 33.8516 10.4571C33.8626 10.3593 33.8466 10.2603 33.8055 10.1708C33.7644 10.0813 33.6996 10.0047 33.6182 9.94933C33.5367 9.89393 33.4417 9.86179 33.3434 9.85639C33.0394 9.81964 32.7208 9.89649 32.4101 9.9299C32.0058 9.97333 31.6027 10.0613 31.1995 10.0635C30.685 10.0635 30.3453 9.76507 30.1337 9.30288C29.9221 8.84069 29.9343 8.38184 30.2684 7.99872C30.8698 7.31156 31.6506 6.91286 32.5627 6.9407C32.9191 6.95184 33.2677 7.23472 33.7232 7.44187C33.1997 7.83835 32.9191 8.17914 32.2921 7.92633C32.0081 7.81496 31.459 8.12234 31.1438 8.37961C30.8487 8.62017 31.1505 9.118 31.6038 9.11911C31.9732 9.10319 32.3402 9.05172 32.6997 8.96542C33.9058 8.73154 34.5384 8.98324 34.8157 9.82409C35.0819 10.6249 34.7043 11.3109 33.6441 11.811C33.2103 12.0146 32.7504 12.1574 32.2776 12.2353C31.7552 12.321 31.2953 12.1261 30.9311 11.6238Z" fill="#5C3713"/>
<path d="M16.9196 24.5361C16.4552 25.3914 16.4463 25.4137 15.6388 25.1208C15.2557 24.9816 15.0062 25.0295 14.8225 25.3937C14.7846 25.4571 14.7418 25.5174 14.6944 25.5741C14.1465 26.3303 14.1465 26.3303 14.6755 27.0965C14.935 27.4718 14.935 27.4718 14.2712 28.1969C13.9181 27.7146 13.5707 27.2435 13.2265 26.7702C12.6262 25.9449 12.0159 25.1275 11.4446 24.2855C11.3533 24.1519 11.3421 23.8334 11.4357 23.7287C11.6718 23.4681 11.7197 22.8756 12.2242 23.0259C13.7812 23.4926 15.3248 24.0193 16.9196 24.5361ZM13.5874 25.6866L14.3369 24.6542L12.4436 24.0015L12.3857 24.1129L13.5874 25.6866Z" fill="#5C3713"/>
<path d="M9.85533 38.6179C9.74396 39.55 9.74396 39.5712 8.87304 39.6046C8.48658 39.6191 8.28945 39.7483 8.25715 40.1347C8.24757 40.2833 8.21488 40.4295 8.16026 40.568C7.92304 41.1315 8.09678 41.4712 8.65363 41.7318C9.21049 41.9924 9.19712 42.0392 8.8374 42.968C8.08676 42.5225 7.34503 42.0771 6.6033 41.6316C5.96737 41.2496 5.34258 40.852 4.69551 40.4889C4.22107 40.2238 4.52066 39.8764 4.56075 39.5634C4.59528 39.3006 4.60196 39.0177 5.00624 38.9865C6.55875 38.8673 8.10903 38.7203 9.65931 38.5856C9.72571 38.5884 9.79152 38.5993 9.85533 38.6179ZM7.23922 40.9299C7.34391 40.4689 7.42633 40.1069 7.52545 39.6737L5.54973 39.8307L5.53525 39.9588L7.23922 40.9299Z" fill="#5C3713"/>
<path d="M15.287 76.2891C16.1078 76.4072 16.2292 76.6021 16.0231 77.2514C15.9772 77.4323 15.9437 77.6161 15.9229 77.8016L16.0755 77.8985L17.2571 76.7848C16.8116 76.1666 16.3806 75.5697 15.9307 74.9449L16.3238 74.5696L18.9221 78.0677L18.5524 78.4564L17.8964 77.659L16.8339 78.6435C17.1914 79.1402 17.5322 79.6158 17.9309 80.1715L17.5756 80.5057C16.8618 79.8853 16.6446 78.8908 15.6244 78.5667C15.4707 79.3229 15.3193 80.0713 15.1689 80.8175C14.523 80.793 14.2557 80.5547 14.3804 79.9833C14.6488 78.746 14.9774 77.5309 15.287 76.2891Z" fill="#5C3713"/>
<path d="M88.3173 29.6837L86.708 30.5268C86.5353 30.2149 86.3861 29.9432 86.1968 29.599L90.6037 27.2603L92.3122 30.4688L91.6038 30.8575L90.3788 28.59L89.0601 29.2905C89.4477 30.0378 89.813 30.7384 90.2006 31.4879L89.5023 31.8677C89.0969 31.1304 88.7238 30.4343 88.3173 29.6837Z" fill="#5C3713"/>
<path d="M55.6646 3.74646C56.6858 3.76094 56.6925 3.75982 56.8284 4.63743C56.9977 5.72775 57.1547 6.8203 57.3396 8.06654C57.8964 6.93835 58.3909 5.95049 58.8832 4.96374C59.2808 4.16521 59.2819 4.16522 60.2408 4.45367C60.0838 4.74769 59.9345 5.03502 59.7786 5.3179C59.1505 6.45946 58.5335 7.60101 57.8775 8.7214C57.7895 8.87287 57.5011 8.99203 57.3128 8.9809C57.0545 8.9653 56.6992 9.02433 56.6168 8.59555C56.3116 6.99404 55.9898 5.39586 55.6646 3.74646Z" fill="#5C3713"/>
<path d="M80.4745 21.6494L79.5635 20.6905C81.4791 19.7238 81.4301 17.7469 82.0136 16.0886C82.7053 16.4573 82.7988 16.6611 82.5972 17.3393C82.4335 17.8884 82.2631 18.4374 82.0637 19.1123C82.6752 18.9587 83.2042 18.8306 83.7343 18.6947C84.5963 18.472 84.5952 18.472 85.1454 19.2883C84.3914 19.4721 83.6642 19.6881 82.918 19.8184C82.1718 19.9487 81.5448 20.2361 81.0748 20.8341C80.8843 21.0836 80.7017 21.342 80.4745 21.6494Z" fill="#5C3713"/>
<path d="M78.8887 14.4214L77.697 13.3857L78.2204 12.7787L81.4446 15.4805L80.9368 16.1031L79.7117 15.1086L77.0388 18.2804C76.7682 18.0577 76.5209 17.8516 76.2202 17.6033L78.8887 14.4214Z" fill="#5C3713"/>
<path d="M91.3467 45.2779L96.3083 44.8513L96.4196 45.8893L92.2811 46.2824C92.3412 47.1578 92.3924 47.9786 92.457 48.844L91.6774 48.9052C91.5694 47.698 91.4614 46.5286 91.3467 45.2779Z" fill="#5C3713"/>
<path d="M31.8386 93.7476L30.9365 93.2598L32.3843 89.7527C32.7185 88.9364 32.7185 88.9375 32.009 88.4441C32.0035 88.4073 31.9845 88.3661 31.9957 88.3327C32.0436 88.2147 32.0992 88.1011 32.1828 87.9207L34.6329 89.217C34.6164 89.3011 34.5945 89.3841 34.5672 89.4654C34.5327 89.5478 34.4837 89.6246 34.4235 89.7338L33.6384 89.3807L31.8386 93.7476Z" fill="#5C3713"/>
<path d="M74.4729 16.3403L73.5986 15.7289C74.5475 14.3746 75.4786 13.0437 76.452 11.6527L77.3318 12.2552L74.4729 16.3403Z" fill="#5C3713"/>
<path d="M54.3599 8.54109L53.3086 8.44643C53.42 6.787 53.5313 5.17101 53.6427 3.49487L54.703 3.55724C54.5905 5.23449 54.4758 6.87164 54.3599 8.54109Z" fill="#5C3713"/>
<path d="M8.34033 48.8808V49.9377L3.37207 49.7639L3.4233 48.6992L8.34033 48.8808Z" fill="#5C3713"/>
<path d="M96.052 56.6321L91.1172 56.0196C91.164 55.6632 91.2041 55.3614 91.2553 54.9705L96.179 55.5741C96.1367 55.926 96.0988 56.2423 96.052 56.6321Z" fill="#5C3713"/>
<path d="M77.3603 85.1531C77.9439 85.8882 77.8326 86.4473 77.1298 87.013C76.3881 87.6122 75.5996 87.6089 75.1095 87.0052C74.5237 86.2813 74.6451 85.2422 75.388 84.633C76.0462 84.094 76.1341 84.0895 76.5997 84.6386C76.417 84.75 76.2555 84.9026 76.0651 84.9649C75.5829 85.1253 75.5673 85.4639 75.6909 85.8559C75.8223 86.2735 76.0829 86.6433 76.5507 86.5475C76.7511 86.5063 76.9004 86.1365 77.0396 85.8971C77.1603 85.6553 77.2674 85.4069 77.3603 85.1531Z" fill="#5C3713"/>
<path d="M75.1921 83.2699C75.3135 83.4548 75.3926 83.5751 75.4973 83.7365C74.8135 84.3045 74.1374 84.8647 73.4559 85.4283C73.0783 85.1665 73.0839 84.9616 73.4291 84.6999C74.0138 84.2555 74.5707 83.7766 75.1921 83.2699Z" fill="#5C3713"/>
<path d="M87.3057 50.0055C87.2868 70.6091 70.5566 87.3281 49.9797 87.3059C29.3081 87.2836 12.6493 70.5724 12.6704 49.8852C12.6949 29.3228 29.4318 12.6495 50.0154 12.6873C70.6468 12.7107 87.3235 29.4019 87.3057 50.0055ZM14.3978 49.981C14.4034 69.6558 30.3406 85.5763 50.0209 85.5663C69.6467 85.5562 85.5327 69.6681 85.5594 50.0211C85.5872 30.3541 69.6578 14.4069 49.9764 14.3991C30.3584 14.3902 14.3922 30.3574 14.3978 49.981Z" fill="white"/>
<path d="M25.7168 84.7244C25.6633 84.907 25.6054 85.0886 25.5442 85.3102C25.7602 85.4683 25.9807 85.6321 26.2258 85.8136L26.5833 85.4216C27.0544 85.7434 27.5221 86.0319 27.952 86.3693C28.3607 86.6901 28.1748 87.7737 27.6803 87.8795C27.4241 87.9341 27.1145 87.7414 26.7826 87.6479L26.5855 87.982C26.3026 87.982 26.0409 87.982 25.7792 87.982C25.4851 87.982 25.18 88.0176 24.9004 87.9519C24.4761 87.8506 24.3659 87.5064 24.4884 87.1233C24.6209 86.7157 24.9461 86.67 25.298 86.8404C25.5754 86.9741 25.8349 87.1445 26.1166 87.3071C26.3817 86.6155 25.807 86.4807 25.4863 86.1633C25.2955 85.9661 25.1868 85.7037 25.1822 85.4294C25.1956 85.1587 25.405 84.8981 25.523 84.6331L25.7168 84.7244Z" fill="white"/>
<path d="M27.5285 88.7549C28.6789 88.7293 28.7413 88.6669 29.1868 87.1044L29.9831 87.5744C29.649 88.2682 29.3995 88.9721 28.9941 89.5724C28.8326 89.8118 28.2902 89.9777 27.9918 89.8987C27.5084 89.765 27.4717 89.2605 27.5285 88.7549Z" fill="white"/>
<path d="M52.6553 92.4502L53.8804 92.3265C53.9349 93.0148 54.053 93.663 54.0051 94.2867C53.985 94.5573 53.6175 94.8012 53.4081 95.0574C53.2099 94.8246 52.8936 94.6119 52.8368 94.3524C52.7087 93.7632 52.7121 93.1462 52.6553 92.4502Z" fill="white"/>
<path d="M57.4194 91.8142L58.5198 91.6049C58.6144 92.135 58.7013 92.6183 58.8004 93.1718L57.7034 93.4313C57.6088 92.8934 57.5208 92.3945 57.4194 91.8142Z" fill="white"/>
<path d="M66.7979 8.91753C66.9994 8.46313 67.1765 8.06665 67.3803 7.60669C67.8715 7.82943 68.3325 8.00985 68.7635 8.24484C69.0977 8.42972 69.2703 8.72597 69.0765 9.13581C68.895 9.51447 68.5931 9.65257 68.2111 9.51559C67.7467 9.34408 67.299 9.13247 66.7979 8.91753Z" fill="white"/>
<path d="M5.76911 46.6289L4.32129 46.5175C4.38032 45.9495 4.40482 45.4361 4.4928 44.9349C4.55851 44.564 4.82691 44.3703 5.21894 44.407C5.61097 44.4438 5.85264 44.6676 5.85821 45.0463C5.86489 45.5419 5.80586 46.0375 5.76911 46.6289Z" fill="white"/>
<path d="M35.8159 92.6006C36.9697 92.2731 37.0098 92.2107 37.1334 90.5836L38.0021 90.8609C37.8072 91.6238 37.6981 92.3667 37.4096 93.0304C37.286 93.3156 36.7826 93.6096 36.4641 93.5962C35.9885 93.575 35.8794 93.0683 35.8159 92.6006Z" fill="white"/>
<path d="M11.7699 31.2875L8.85645 29.7283C9.17831 29.0189 9.44114 28.2972 10.3043 28.2382C11.105 28.1836 11.7521 28.579 12.1697 29.2405C12.6486 29.9945 12.1731 30.6059 11.7699 31.2875Z" fill="white"/>
<path d="M90.1113 36.2112L93.2464 35.1365C93.526 35.8726 93.8523 36.542 93.3255 37.2369C92.9201 37.7726 91.9167 38.0811 91.2551 37.8896C90.4332 37.6501 90.3218 36.9362 90.1113 36.2112Z" fill="white"/>
<path d="M78.5601 81.1338C78.9655 81.655 79.3954 82.184 79.7974 82.7331C80.0391 83.0672 79.9645 83.8267 79.6649 84.0695C79.323 84.3535 78.9555 84.2923 78.6035 84.0695C78.9677 82.6874 78.8909 82.4569 77.7905 81.7497L78.5601 81.1338Z" fill="white"/>
<path d="M86.914 23.8156C87.2774 23.8211 87.625 23.9652 87.8857 24.2183C88.1465 24.4715 88.3009 24.8146 88.3173 25.1776C88.3373 26.0207 87.247 26.9807 86.2536 26.9963C85.5274 27.0074 84.877 26.3504 84.8848 25.6131C84.8915 24.78 85.9674 23.8334 86.914 23.8156Z" fill="white"/>
<path d="M21.128 14.9238C21.1191 14.2054 21.7962 13.5372 22.5202 13.5405C23.3365 13.5405 24.3611 14.6542 24.3778 15.5519C24.3912 16.2491 23.7452 16.9095 23.0336 16.9262C22.1627 16.9418 21.1392 15.8704 21.128 14.9238Z" fill="white"/>
<path d="M81.5234 78.1056L82.2563 77.2035L83.3221 78.2949C83.0849 78.5912 82.8577 78.8729 82.5815 79.216L81.5234 78.1056Z" fill="white"/>
<path d="M18.8419 81.8142C18.8485 81.3375 19.3475 80.7005 19.7005 80.8453C19.9934 80.9566 20.2173 81.3487 20.3788 81.6638C20.4812 81.8643 19.7874 82.4624 19.5168 82.4524C19.0746 82.4357 18.8374 82.2107 18.8419 81.8142Z" fill="white"/>
<path d="M13.5871 25.6866L12.3843 24.1119L12.4422 24.0005L14.3355 24.6531L13.5871 25.6866Z" fill="white"/>
<path d="M7.23913 40.93L5.53516 39.9588L5.54963 39.8307L7.52536 39.6737C7.42178 40.1069 7.33937 40.4689 7.23913 40.93Z" fill="white"/>
<path d="M14.398 49.9811C14.3924 30.3575 30.3585 14.3903 49.9765 14.3992C69.658 14.407 85.5874 30.3542 85.5596 50.0212C85.5328 69.6681 69.6469 85.5563 50.0211 85.5663C30.3407 85.5764 14.4035 69.6559 14.398 49.9811ZM77.1221 29.2115C69.8696 20.4076 60.7584 15.7356 49.4397 15.9094C38.5031 16.0731 29.7271 20.7674 22.8811 29.1859C22.9691 29.3218 22.9813 29.363 23.0092 29.3808C23.1495 29.4721 23.292 29.559 23.4357 29.6436C26.6053 31.4924 30.001 32.6573 33.6618 33.0126C39.217 33.5528 44.3612 32.3154 49.0588 29.3262C49.8496 28.8228 50.3775 28.7694 51.2127 29.2472C54.6341 31.2006 58.2982 32.4569 62.2607 32.7509C66.289 33.0494 70.1258 32.262 73.8288 30.7284C74.9002 30.284 75.9382 29.7595 77.1221 29.2115ZM23.2898 31.2685C23.2898 31.5904 23.2898 31.7931 23.2898 31.9958C23.3747 35.5767 23.734 39.1458 24.3645 42.6718C26.2244 52.8422 30.1781 62.1105 36.328 70.4288C40.0166 75.4193 44.3467 79.7684 49.4186 83.3623C49.7527 83.6029 50.0144 83.6385 50.3596 83.4124C51.6304 82.5805 52.9613 81.8298 54.1841 80.9311C58.4318 77.8127 61.8787 73.9147 64.8278 69.5712C70.3474 61.4467 74.0716 52.5482 76.1721 42.9625C76.8882 39.6915 77.3359 36.386 77.1811 33.0249C77.1499 32.3488 77.0452 31.6762 76.9751 31.0135C76.8437 31.0135 76.8025 31.0012 76.7724 31.0135C76.4505 31.1583 76.1309 31.3064 75.8113 31.459C71.3753 33.516 66.7512 34.6086 61.8297 34.1842C57.8204 33.839 54.124 32.5259 50.6158 30.6204C50.2995 30.4488 50.0846 30.4455 49.766 30.6359C41.5313 35.5463 33.0771 35.9094 24.4124 31.8276C24.065 31.6639 23.7219 31.4857 23.2898 31.2685ZM47.5442 83.957C30.6024 70.3519 22.4222 52.4858 21.7284 30.979C15.9727 38.8863 13.2876 52.2319 19.1034 64.5139C25.4114 77.8316 38.1857 83.6207 47.5442 83.957ZM52.3587 83.9737C62.8777 83.4703 75.5239 76.9195 81.3542 63.4302C86.6009 51.283 83.6362 38.6057 78.5632 31.5046C78.5468 31.535 78.5366 31.5683 78.5332 31.6026C78.9029 34.8447 78.5877 38.0544 77.9997 41.2362C76.201 50.9623 72.6316 60.0078 67.3682 68.3818C63.9413 73.8278 59.8373 78.6792 54.5784 82.4702C53.8901 82.9614 53.1751 83.4169 52.3587 83.9737Z" fill="#5C3713"/>
<path d="M77.1223 29.2115C75.9385 29.7594 74.8949 30.284 73.8291 30.7284C70.126 32.262 66.2893 33.0493 62.261 32.7509C58.2984 32.4569 54.6343 31.2006 51.213 29.2471C50.3777 28.7705 49.8498 28.8228 49.0591 29.3262C44.3615 32.3154 39.2172 33.5527 33.6621 33.0126C30.0013 32.6573 26.6056 31.4924 23.436 29.6436C23.2923 29.559 23.1498 29.4721 23.0094 29.3808C22.9816 29.363 22.9693 29.3218 22.8813 29.1859C29.7273 20.7674 38.5034 16.0731 49.44 15.9094C60.7586 15.7401 69.8699 20.4076 77.1223 29.2115Z" fill="white"/>
<path d="M23.2898 31.2685C23.7241 31.4857 24.0694 31.6639 24.4124 31.8254C33.0748 35.9071 41.5312 35.5441 49.7671 30.6304C50.0856 30.4399 50.3006 30.4433 50.6169 30.6148C54.1251 32.5215 57.8237 33.8345 61.8308 34.1787C66.7523 34.603 71.3764 33.5104 75.8123 31.4534C76.132 31.3053 76.4516 31.1572 76.7735 31.0079C76.8035 30.9935 76.8447 31.0079 76.9761 31.0079C77.0463 31.6706 77.151 32.3444 77.1822 33.0193C77.337 36.3805 76.8893 39.686 76.1732 42.9569C74.0749 52.5426 70.3485 61.4445 64.8289 69.5657C61.8798 73.9091 58.4329 77.8071 54.1852 80.9255C52.9601 81.8243 51.6315 82.5749 50.3607 83.4069C50.0155 83.6296 49.7582 83.5973 49.4196 83.3567C44.3456 79.7628 40.0177 75.4138 36.3291 70.4232C30.1814 62.1105 26.2255 52.8422 24.3656 42.6718C23.7351 39.1458 23.3758 35.5767 23.2909 31.9958C23.2853 31.7931 23.2898 31.5904 23.2898 31.2685ZM48.0175 80.9667C48.5053 80.3308 49.0443 79.7728 48.6968 78.9052C48.62 78.7137 48.689 78.4598 48.6968 78.237C48.7599 74.1356 48.8234 70.0342 48.8873 65.9328C48.9986 58.4174 49.1033 50.8977 49.2448 43.3857C49.2559 42.7665 48.8806 42.7308 48.5064 42.5526C48.1132 42.3655 47.8627 42.4145 47.5653 42.7754C45.9616 44.6999 44.3255 46.5988 42.6995 48.5043C42.5714 48.6558 42.4333 48.7983 42.2674 48.9799L35.6965 42.6039C35.6141 49.6347 35.5294 56.748 35.4448 63.8535C35.2745 63.7819 35.1336 63.6547 35.045 63.4926C34.5661 62.6351 34.0593 61.7886 33.6317 60.9055C33.4295 60.495 33.3193 60.0454 33.3087 59.5879C33.2872 52.85 33.2812 46.1124 33.2909 39.3752C33.2909 39.2215 33.3154 39.0678 33.3377 38.7983L41.1849 46.4228L50.2906 36.9251L50.4398 36.9696V50.0167H66.8458C66.8458 49.2059 66.8458 48.4831 66.8458 47.7604C66.8458 44.5874 66.8458 41.4122 66.8737 38.2392C66.8737 38.0466 66.9995 37.7281 67.1365 37.6824C67.66 37.5153 68.2124 37.4374 68.7971 37.316C68.8071 37.5198 68.8238 37.6824 68.8238 37.845C68.8238 43.3022 68.7837 48.7593 68.8527 54.2165C68.8728 55.8425 68.63 57.3349 67.8192 58.7393C67.5753 59.1581 67.386 59.6091 67.1711 60.0457L67.0864 59.9978V51.7563H50.6737C50.6737 52.0036 50.6737 52.2018 50.6737 52.4079C50.7962 60.7755 50.9187 69.1443 51.0412 77.5142C51.0501 78.198 50.9744 78.883 50.9777 79.5668C50.9777 79.7316 51.1347 79.9009 51.2372 80.0958C51.0579 80.372 51.1904 80.7106 51.852 81.4478C52.0747 81.3064 52.3064 81.1638 52.5336 81.0124C55.9181 78.7393 58.6846 75.8258 61.1347 72.605C66.2845 65.8381 70.0522 58.335 72.8432 50.3308C74.2498 46.2914 75.388 42.184 75.6664 37.884C75.7667 36.3192 75.6664 34.7778 75.1508 33.2877C75.1042 33.2842 75.0573 33.2872 75.0116 33.2966C74.8631 33.3664 74.7146 33.4406 74.5661 33.5193C71.1659 35.2356 67.6121 36.4183 63.782 36.6088C59.2626 36.8404 55.0773 35.6554 51.1169 33.5572C50.6714 33.3222 50.324 33.1117 49.7693 33.4837C44.4235 37.0598 38.5955 37.9697 32.3955 36.435C30.7115 36.0185 29.0844 35.357 27.4506 34.7556C26.6409 34.4571 25.8769 34.0394 25.0606 33.6608C25.0376 33.7475 25.0234 33.8363 25.0183 33.9259C25.241 36.5308 25.3345 39.1536 25.7143 41.7352C26.5864 47.6857 28.4797 53.3467 30.9666 58.8039C31.735 60.4923 32.4478 62.194 33.4234 63.8C35.5829 67.3639 37.7569 70.8943 40.4398 74.0873C42.4445 76.4662 44.5895 78.6925 47.1788 80.45C47.4539 80.6382 47.7424 80.7997 48.0175 80.9667Z" fill="white"/>
<path d="M47.5444 83.9571C38.1892 83.6229 25.4116 77.8317 19.1036 64.5139C13.2878 52.233 15.973 38.8852 21.7286 30.979C22.4225 52.4859 30.6026 70.352 47.5444 83.9571Z" fill="white"/>
<path d="M52.3589 83.9737C53.1752 83.4169 53.8902 82.9614 54.5785 82.4647C59.8374 78.678 63.9415 73.8223 67.3684 68.3762C72.6317 60.0078 76.2012 50.9623 77.9998 41.2362C78.5879 38.0544 78.903 34.8447 78.5333 31.6026C78.5366 31.5681 78.5473 31.5347 78.5645 31.5046C83.6363 38.6057 86.601 51.283 81.3543 63.4302C75.5285 76.9195 62.8779 83.4703 52.3589 83.9737Z" fill="white"/>
<path d="M48.0177 80.9667C47.7426 80.7986 47.4542 80.6326 47.1824 80.4533C44.593 78.6959 42.4447 76.4696 40.4434 74.0907C37.7571 70.8977 35.5831 67.3616 33.427 63.8033C32.448 62.1985 31.7408 60.4967 30.9668 58.8039C28.4799 53.34 26.5866 47.6813 25.7112 41.7307C25.3314 39.1492 25.2368 36.5264 25.0151 33.9214C25.0203 33.8318 25.0345 33.743 25.0575 33.6563C25.8738 34.035 26.6378 34.4526 27.4475 34.7511C29.0813 35.3525 30.7084 36.0141 32.3924 36.4306C38.5957 37.9653 44.4271 37.0554 49.7662 33.4793C50.3231 33.1073 50.6694 33.3178 51.1138 33.5528C55.0742 35.651 59.2595 36.836 63.7789 36.6043C67.609 36.4083 71.1639 35.2311 74.5585 33.506C74.707 33.4317 74.8555 33.3575 75.004 33.2832C75.0498 33.2739 75.0966 33.2709 75.1432 33.2743C75.6589 34.7645 75.7591 36.3059 75.6589 37.8706C75.3804 42.1706 74.2422 46.278 72.8356 50.3174C70.0446 58.325 66.277 65.8281 61.1272 72.5916C58.677 75.8125 55.9106 78.7259 52.526 80.999C52.3033 81.1505 52.066 81.293 51.8444 81.4345C51.1829 80.6972 51.0503 80.3586 51.2296 80.0824C51.1272 79.8831 50.9713 79.7183 50.9701 79.5534C50.9701 78.8696 51.0425 78.1847 51.0336 77.5009C50.9208 69.1399 50.8009 60.7744 50.6739 52.4045C50.6739 52.2029 50.6739 52.0002 50.6739 51.753H67.09V59.9945L67.1746 60.0423C67.3896 59.6058 67.5789 59.1514 67.8228 58.736C68.6369 57.3316 68.8764 55.8403 68.8563 54.2132C68.7873 48.756 68.8285 43.2988 68.8274 37.8417C68.8274 37.6791 68.8107 37.5165 68.8006 37.3126C68.2159 37.434 67.6635 37.512 67.1401 37.6791C67.0031 37.7225 66.8784 38.041 66.8773 38.2359C66.855 41.41 66.8539 44.5841 66.8494 47.757C66.8494 48.4798 66.8494 49.2048 66.8494 50.0134H50.4356V36.9752L50.2863 36.9306L41.1806 46.4284L33.3334 38.8006C33.3112 39.0701 33.2867 39.2238 33.2867 39.3775C33.2867 46.1154 33.2926 52.853 33.3045 59.5902C33.3151 60.0476 33.4253 60.4972 33.6275 60.9077C34.0551 61.7909 34.5619 62.6373 35.0408 63.4948C35.1294 63.6569 35.2703 63.7841 35.4406 63.8557C35.5252 56.7469 35.6099 49.637 35.6923 42.6061L42.2632 48.9821C42.4291 48.8006 42.5672 48.658 42.6953 48.5065C44.3213 46.601 45.9573 44.7021 47.5611 42.7776C47.8584 42.4201 48.109 42.3711 48.5022 42.5549C48.8764 42.7331 49.2517 42.7687 49.2405 43.3879C49.0991 50.9032 48.9966 58.423 48.883 65.935C48.8207 70.0372 48.7572 74.1386 48.6926 78.2393C48.6926 78.462 48.6202 78.7115 48.6926 78.9075C48.3908 81.1895 48.3908 81.1948 48.0177 80.9667ZM42.3523 51.1639L37.1445 46.0608C37.1323 46.18 37.1067 46.3192 37.1056 46.4584C37.0332 52.4869 37.0087 58.5166 36.8606 64.544C36.8216 66.0954 37.2169 67.3371 38.109 68.5901C40.6238 72.1261 43.2878 75.5107 46.6757 78.2649C46.8238 78.3851 46.9853 78.4876 47.2325 78.668C47.3985 67.375 47.5666 56.209 47.7281 45.0429L47.5923 45.0128C45.8649 47.0431 44.1364 49.0723 42.3523 51.165V51.1639ZM52.5427 79.0734L52.7008 79.1436C53.4504 78.5132 54.2255 77.9096 54.945 77.2503C59.2818 73.2599 62.5583 68.4664 65.4138 63.3545C65.4897 63.2102 65.5302 63.0498 65.5319 62.8868C65.5742 59.8627 65.6113 56.8393 65.6433 53.8167C65.6433 53.6218 65.6433 53.4258 65.6433 53.232H52.1496C52.281 61.8844 52.4124 70.48 52.5427 79.0734ZM51.8812 35.5819V36.2234C51.889 40.137 51.9068 44.0517 51.8923 47.9653C51.8923 48.4954 52.0282 48.6558 52.5683 48.6502C56.6519 48.6101 60.7329 48.5912 64.8113 48.5934C65.2835 48.5934 65.3983 48.4442 65.396 47.992C65.3815 44.8391 65.396 41.6851 65.396 38.5322C65.396 38.3529 65.3793 38.1747 65.3682 37.9386C60.6394 38.4798 56.2079 37.5655 51.8812 35.5842V35.5819ZM26.6178 36.0441C26.2269 39.8764 30.0948 55.2701 31.831 56.7948C31.831 54.9326 31.831 53.0973 31.831 51.2619C31.8221 46.9752 31.8021 42.6863 31.8077 38.4041C31.8077 37.9475 31.6629 37.7492 31.2207 37.649C30.6071 37.5033 30.0028 37.3211 29.4109 37.1033C28.4933 36.7747 27.5845 36.4105 26.6178 36.0441ZM74.1375 35.3759L73.5606 35.6064C72.5962 35.9862 71.6406 36.3972 70.665 36.7335C70.2507 36.875 70.1449 37.0676 70.146 37.483C70.1582 42.5259 70.146 47.5688 70.146 52.6117C70.146 52.762 70.1683 52.9135 70.1883 53.1685C70.247 53.074 70.3009 52.9767 70.3498 52.8767C71.8422 49.0155 73.1018 45.0808 73.8223 40.9968C74.1498 39.1659 74.3358 37.3271 74.142 35.3715L74.1375 35.3759ZM35.2056 38.5767C37.1768 40.4923 39.1481 42.4079 41.145 44.3502L49.6716 35.4494C45.1699 37.9775 40.3843 39.0177 35.2056 38.5767Z" fill="#5C3713"/>
<path d="M42.3521 51.1649C44.134 49.0723 45.8647 47.0442 47.5932 45.0139L47.7291 45.044C47.5642 56.21 47.395 67.3761 47.2335 78.6691C46.9851 78.4909 46.8236 78.3862 46.6766 78.2659C43.2887 75.5117 40.6247 72.1272 38.11 68.5912C37.219 67.3382 36.8225 66.0964 36.8615 64.545C37.0096 58.5176 37.0341 52.488 37.1065 46.4595C37.1065 46.3203 37.1332 46.1811 37.1455 46.0619L42.3521 51.1649Z" fill="white"/>
<path d="M52.5426 79.0734C52.4122 70.4778 52.2808 61.8822 52.1494 53.2286H65.6387C65.6387 53.4224 65.6387 53.6184 65.6387 53.8133C65.603 56.8374 65.5659 59.8608 65.5273 62.8834C65.5256 63.0465 65.4851 63.2068 65.4092 63.3511C62.5581 68.4631 59.2838 73.2565 54.9404 77.2469C54.2209 77.9151 53.4458 78.5132 52.6962 79.1402L52.5426 79.0734Z" fill="white"/>
<path d="M51.881 35.5841C56.2078 37.5654 60.6392 38.4798 65.3669 37.9407C65.378 38.1768 65.3948 38.355 65.3948 38.5343C65.3948 41.6872 65.3814 44.8413 65.3948 47.9942C65.3948 48.4463 65.2834 48.5956 64.8101 48.5956C60.7265 48.5956 56.6454 48.6145 52.567 48.6524C52.0269 48.6524 51.8899 48.4976 51.891 47.9674C51.9055 44.0539 51.891 40.1392 51.8799 36.2256L51.881 35.5841Z" fill="white"/>
<path d="M26.6178 36.0441C27.58 36.4105 28.4888 36.7747 29.4099 37.1032C30.0017 37.321 30.606 37.5033 31.2196 37.6489C31.6651 37.7492 31.8066 37.9474 31.8066 38.404C31.801 42.6896 31.821 46.9796 31.8299 51.2618C31.8299 53.0972 31.8299 54.937 31.8299 56.7947C30.0992 55.27 26.2313 39.8763 26.6178 36.0441Z" fill="white"/>
<path d="M74.1418 35.3715C74.3356 37.3271 74.1496 39.1659 73.8277 40.9957C73.1072 45.0841 71.8475 49.0144 70.3552 52.8756C70.3063 52.9756 70.2524 53.0729 70.1937 53.1674C70.1736 52.909 70.1514 52.7576 70.1514 52.6106C70.1514 47.5677 70.158 42.5248 70.1514 37.4819C70.1514 37.0665 70.2561 36.8739 70.6704 36.7324C71.6504 36.3983 72.606 35.9851 73.566 35.6053L74.1418 35.3715Z" fill="white"/>
<path d="M35.2056 38.5766C40.3843 39.0221 45.1699 37.9819 49.6715 35.4493L41.145 44.3501C39.1481 42.4078 37.1768 40.4922 35.2056 38.5766Z" fill="white"/>
</g>
<path d="M151.565 22.41V54H143.87V35.055L136.805 54H130.595L123.485 35.01V54H115.79V22.41H124.88L133.745 44.28L142.52 22.41H151.565ZM160.069 26.28C158.719 26.28 157.609 25.89 156.739 25.11C155.899 24.3 155.479 23.31 155.479 22.14C155.479 20.94 155.899 19.95 156.739 19.17C157.609 18.36 158.719 17.955 160.069 17.955C161.389 17.955 162.469 18.36 163.309 19.17C164.179 19.95 164.614 20.94 164.614 22.14C164.614 23.31 164.179 24.3 163.309 25.11C162.469 25.89 161.389 26.28 160.069 26.28ZM163.894 28.89V54H156.199V28.89H163.894ZM176.265 33.075C177.165 31.695 178.29 30.615 179.64 29.835C180.99 29.025 182.49 28.62 184.14 28.62V36.765H182.025C180.105 36.765 178.665 37.185 177.705 38.025C176.745 38.835 176.265 40.275 176.265 42.345V54H168.57V28.89H176.265V33.075ZM185.388 41.4C185.388 38.82 185.868 36.555 186.828 34.605C187.818 32.655 189.153 31.155 190.833 30.105C192.513 29.055 194.388 28.53 196.458 28.53C198.228 28.53 199.773 28.89 201.093 29.61C202.443 30.33 203.478 31.275 204.198 32.445V28.89H211.893V54H204.198V50.445C203.448 51.615 202.398 52.56 201.048 53.28C199.728 54 198.183 54.36 196.413 54.36C194.373 54.36 192.513 53.835 190.833 52.785C189.153 51.705 187.818 50.19 186.828 48.24C185.868 46.26 185.388 43.98 185.388 41.4ZM204.198 41.445C204.198 39.525 203.658 38.01 202.578 36.9C201.528 35.79 200.238 35.235 198.708 35.235C197.178 35.235 195.873 35.79 194.793 36.9C193.743 37.98 193.218 39.48 193.218 41.4C193.218 43.32 193.743 44.85 194.793 45.99C195.873 47.1 197.178 47.655 198.708 47.655C200.238 47.655 201.528 47.1 202.578 45.99C203.658 44.88 204.198 43.365 204.198 41.445ZM231.86 28.62C234.8 28.62 237.14 29.58 238.88 31.5C240.65 33.39 241.535 36 241.535 39.33V54H233.885V40.365C233.885 38.685 233.45 37.38 232.58 36.45C231.71 35.52 230.54 35.055 229.07 35.055C227.6 35.055 226.43 35.52 225.56 36.45C224.69 37.38 224.255 38.685 224.255 40.365V54H216.56V28.89H224.255V32.22C225.035 31.11 226.085 30.24 227.405 29.61C228.725 28.95 230.21 28.62 231.86 28.62ZM244.452 41.4C244.452 38.82 244.932 36.555 245.892 34.605C246.882 32.655 248.217 31.155 249.897 30.105C251.577 29.055 253.452 28.53 255.522 28.53C257.172 28.53 258.672 28.875 260.022 29.565C261.402 30.255 262.482 31.185 263.262 32.355V20.7H270.957V54H263.262V50.4C262.542 51.6 261.507 52.56 260.157 53.28C258.837 54 257.292 54.36 255.522 54.36C253.452 54.36 251.577 53.835 249.897 52.785C248.217 51.705 246.882 50.19 245.892 48.24C244.932 46.26 244.452 43.98 244.452 41.4ZM263.262 41.445C263.262 39.525 262.722 38.01 261.642 36.9C260.592 35.79 259.302 35.235 257.772 35.235C256.242 35.235 254.937 35.79 253.857 36.9C252.807 37.98 252.282 39.48 252.282 41.4C252.282 43.32 252.807 44.85 253.857 45.99C254.937 47.1 256.242 47.655 257.772 47.655C259.302 47.655 260.592 47.1 261.642 45.99C262.722 44.88 263.262 43.365 263.262 41.445ZM274.094 41.4C274.094 38.82 274.574 36.555 275.534 34.605C276.524 32.655 277.859 31.155 279.539 30.105C281.219 29.055 283.094 28.53 285.164 28.53C286.934 28.53 288.479 28.89 289.799 29.61C291.149 30.33 292.184 31.275 292.904 32.445V28.89H300.599V54H292.904V50.445C292.154 51.615 291.104 52.56 289.754 53.28C288.434 54 286.889 54.36 285.119 54.36C283.079 54.36 281.219 53.835 279.539 52.785C277.859 51.705 276.524 50.19 275.534 48.24C274.574 46.26 274.094 43.98 274.094 41.4ZM292.904 41.445C292.904 39.525 292.364 38.01 291.284 36.9C290.234 35.79 288.944 35.235 287.414 35.235C285.884 35.235 284.579 35.79 283.499 36.9C282.449 37.98 281.924 39.48 281.924 41.4C281.924 43.32 282.449 44.85 283.499 45.99C284.579 47.1 285.884 47.655 287.414 47.655C288.944 47.655 290.234 47.1 291.284 45.99C292.364 44.88 292.904 43.365 292.904 41.445ZM341.263 22.41V54H333.568V40.995H321.598V54H313.903V22.41H321.598V34.785H333.568V22.41H341.263ZM357.348 54.36C354.888 54.36 352.668 53.835 350.688 52.785C348.738 51.735 347.193 50.235 346.053 48.285C344.943 46.335 344.388 44.055 344.388 41.445C344.388 38.865 344.958 36.6 346.098 34.65C347.238 32.67 348.798 31.155 350.778 30.105C352.758 29.055 354.978 28.53 357.438 28.53C359.898 28.53 362.118 29.055 364.098 30.105C366.078 31.155 367.638 32.67 368.778 34.65C369.918 36.6 370.488 38.865 370.488 41.445C370.488 44.025 369.903 46.305 368.733 48.285C367.593 50.235 366.018 51.735 364.008 52.785C362.028 53.835 359.808 54.36 357.348 54.36ZM357.348 47.7C358.818 47.7 360.063 47.16 361.083 46.08C362.133 45 362.658 43.455 362.658 41.445C362.658 39.435 362.148 37.89 361.128 36.81C360.138 35.73 358.908 35.19 357.438 35.19C355.938 35.19 354.693 35.73 353.703 36.81C352.713 37.86 352.218 39.405 352.218 41.445C352.218 43.455 352.698 45 353.658 46.08C354.648 47.16 355.878 47.7 357.348 47.7ZM398.465 28.89V54H390.77V50.58C389.99 51.69 388.925 52.59 387.575 53.28C386.255 53.94 384.785 54.27 383.165 54.27C381.245 54.27 379.55 53.85 378.08 53.01C376.61 52.14 375.47 50.895 374.66 49.275C373.85 47.655 373.445 45.75 373.445 43.56V28.89H381.095V42.525C381.095 44.205 381.53 45.51 382.4 46.44C383.27 47.37 384.44 47.835 385.91 47.835C387.41 47.835 388.595 47.37 389.465 46.44C390.335 45.51 390.77 44.205 390.77 42.525V28.89H398.465ZM413.307 54.36C411.117 54.36 409.167 53.985 407.457 53.235C405.747 52.485 404.397 51.465 403.407 50.175C402.417 48.855 401.862 47.385 401.742 45.765H409.347C409.437 46.635 409.842 47.34 410.562 47.88C411.282 48.42 412.167 48.69 413.217 48.69C414.177 48.69 414.912 48.51 415.422 48.15C415.962 47.76 416.232 47.265 416.232 46.665C416.232 45.945 415.857 45.42 415.107 45.09C414.357 44.73 413.142 44.34 411.462 43.92C409.662 43.5 408.162 43.065 406.962 42.615C405.762 42.135 404.727 41.4 403.857 40.41C402.987 39.39 402.552 38.025 402.552 36.315C402.552 34.875 402.942 33.57 403.722 32.4C404.532 31.2 405.702 30.255 407.232 29.565C408.792 28.875 410.637 28.53 412.767 28.53C415.917 28.53 418.392 29.31 420.192 30.87C422.022 32.43 423.072 34.5 423.342 37.08H416.232C416.112 36.21 415.722 35.52 415.062 35.01C414.432 34.5 413.592 34.245 412.542 34.245C411.642 34.245 410.952 34.425 410.472 34.785C409.992 35.115 409.752 35.58 409.752 36.18C409.752 36.9 410.127 37.44 410.877 37.8C411.657 38.16 412.857 38.52 414.477 38.88C416.337 39.36 417.852 39.84 419.022 40.32C420.192 40.77 421.212 41.52 422.082 42.57C422.982 43.59 423.447 44.97 423.477 46.71C423.477 48.18 423.057 49.5 422.217 50.67C421.407 51.81 420.222 52.71 418.662 53.37C417.132 54.03 415.347 54.36 413.307 54.36ZM450.955 41.04C450.955 41.76 450.91 42.51 450.82 43.29H433.405C433.525 44.85 434.02 46.05 434.89 46.89C435.79 47.7 436.885 48.105 438.175 48.105C440.095 48.105 441.43 47.295 442.18 45.675H450.37C449.95 47.325 449.185 48.81 448.075 50.13C446.995 51.45 445.63 52.485 443.98 53.235C442.33 53.985 440.485 54.36 438.445 54.36C435.985 54.36 433.795 53.835 431.875 52.785C429.955 51.735 428.455 50.235 427.375 48.285C426.295 46.335 425.755 44.055 425.755 41.445C425.755 38.835 426.28 36.555 427.33 34.605C428.41 32.655 429.91 31.155 431.83 30.105C433.75 29.055 435.955 28.53 438.445 28.53C440.875 28.53 443.035 29.04 444.925 30.06C446.815 31.08 448.285 32.535 449.335 34.425C450.415 36.315 450.955 38.52 450.955 41.04ZM443.08 39.015C443.08 37.695 442.63 36.645 441.73 35.865C440.83 35.085 439.705 34.695 438.355 34.695C437.065 34.695 435.97 35.07 435.07 35.82C434.2 36.57 433.66 37.635 433.45 39.015H443.08Z" fill="#5C3713"/>
<path d="M118.984 65.272V75.856C118.984 77.344 119.344 78.448 120.064 79.168C120.8 79.888 121.816 80.248 123.112 80.248C124.392 80.248 125.392 79.888 126.112 79.168C126.848 78.448 127.216 77.344 127.216 75.856V65.272H129.4V75.832C129.4 77.224 129.12 78.4 128.56 79.36C128 80.304 127.24 81.008 126.28 81.472C125.336 81.936 124.272 82.168 123.088 82.168C121.904 82.168 120.832 81.936 119.872 81.472C118.928 81.008 118.176 80.304 117.616 79.36C117.072 78.4 116.8 77.224 116.8 75.832V65.272H118.984ZM146.435 82H144.251L135.467 68.68V82H133.283V65.248H135.467L144.251 78.544V65.248H146.435V82ZM152.582 65.272V82H150.398V65.272H152.582ZM170.369 65.272L164.057 82H161.537L155.225 65.272H157.553L162.809 79.696L168.065 65.272H170.369ZM175.187 67.048V72.64H181.283V74.44H175.187V80.2H182.003V82H173.003V65.248H182.003V67.048H175.187ZM194.356 82L190.372 75.16H187.732V82H185.548V65.272H190.948C192.212 65.272 193.276 65.488 194.14 65.92C195.02 66.352 195.676 66.936 196.108 67.672C196.54 68.408 196.756 69.248 196.756 70.192C196.756 71.344 196.42 72.36 195.748 73.24C195.092 74.12 194.1 74.704 192.772 74.992L196.972 82H194.356ZM187.732 73.408H190.948C192.132 73.408 193.02 73.12 193.612 72.544C194.204 71.952 194.5 71.168 194.5 70.192C194.5 69.2 194.204 68.432 193.612 67.888C193.036 67.344 192.148 67.072 190.948 67.072H187.732V73.408ZM205.694 82.168C204.59 82.168 203.598 81.976 202.718 81.592C201.854 81.192 201.174 80.648 200.678 79.96C200.182 79.256 199.926 78.448 199.91 77.536H202.238C202.318 78.32 202.638 78.984 203.198 79.528C203.774 80.056 204.606 80.32 205.694 80.32C206.734 80.32 207.55 80.064 208.142 79.552C208.75 79.024 209.054 78.352 209.054 77.536C209.054 76.896 208.878 76.376 208.526 75.976C208.174 75.576 207.734 75.272 207.206 75.064C206.678 74.856 205.966 74.632 205.07 74.392C203.966 74.104 203.078 73.816 202.406 73.528C201.75 73.24 201.182 72.792 200.702 72.184C200.238 71.56 200.006 70.728 200.006 69.688C200.006 68.776 200.238 67.968 200.702 67.264C201.166 66.56 201.814 66.016 202.646 65.632C203.494 65.248 204.462 65.056 205.55 65.056C207.118 65.056 208.398 65.448 209.39 66.232C210.398 67.016 210.966 68.056 211.094 69.352H208.694C208.614 68.712 208.278 68.152 207.686 67.672C207.094 67.176 206.31 66.928 205.334 66.928C204.422 66.928 203.678 67.168 203.102 67.648C202.526 68.112 202.238 68.768 202.238 69.616C202.238 70.224 202.406 70.72 202.742 71.104C203.094 71.488 203.518 71.784 204.014 71.992C204.526 72.184 205.238 72.408 206.15 72.664C207.254 72.968 208.142 73.272 208.814 73.576C209.486 73.864 210.062 74.32 210.542 74.944C211.022 75.552 211.262 76.384 211.262 77.44C211.262 78.256 211.046 79.024 210.614 79.744C210.182 80.464 209.542 81.048 208.694 81.496C207.846 81.944 206.846 82.168 205.694 82.168ZM216.9 65.272V82H214.716V65.272H216.9ZM231.158 65.272V67.048H226.598V82H224.414V67.048H219.83V65.272H231.158ZM245.798 65.272L240.35 75.688V82H238.166V75.688L232.694 65.272H235.118L239.246 73.744L243.374 65.272H245.798ZM262.564 82.168C261.012 82.168 259.596 81.808 258.316 81.088C257.036 80.352 256.02 79.336 255.268 78.04C254.532 76.728 254.164 75.256 254.164 73.624C254.164 71.992 254.532 70.528 255.268 69.232C256.02 67.92 257.036 66.904 258.316 66.184C259.596 65.448 261.012 65.08 262.564 65.08C264.132 65.08 265.556 65.448 266.836 66.184C268.116 66.904 269.124 67.912 269.86 69.208C270.596 70.504 270.964 71.976 270.964 73.624C270.964 75.272 270.596 76.744 269.86 78.04C269.124 79.336 268.116 80.352 266.836 81.088C265.556 81.808 264.132 82.168 262.564 82.168ZM262.564 80.272C263.732 80.272 264.78 80 265.708 79.456C266.652 78.912 267.388 78.136 267.916 77.128C268.46 76.12 268.732 74.952 268.732 73.624C268.732 72.28 268.46 71.112 267.916 70.12C267.388 69.112 266.66 68.336 265.732 67.792C264.804 67.248 263.748 66.976 262.564 66.976C261.38 66.976 260.324 67.248 259.396 67.792C258.468 68.336 257.732 69.112 257.188 70.12C256.66 71.112 256.396 72.28 256.396 73.624C256.396 74.952 256.66 76.12 257.188 77.128C257.732 78.136 258.468 78.912 259.396 79.456C260.34 80 261.396 80.272 262.564 80.272ZM283.543 65.272V67.048H276.271V72.688H282.175V74.464H276.271V82H274.087V65.272H283.543ZM298.268 65.272C300.092 65.272 301.668 65.616 302.996 66.304C304.34 66.976 305.364 67.944 306.068 69.208C306.788 70.472 307.148 71.96 307.148 73.672C307.148 75.384 306.788 76.872 306.068 78.136C305.364 79.384 304.34 80.344 302.996 81.016C301.668 81.672 300.092 82 298.268 82H293.06V65.272H298.268ZM298.268 80.2C300.428 80.2 302.076 79.632 303.212 78.496C304.348 77.344 304.916 75.736 304.916 73.672C304.916 71.592 304.34 69.968 303.188 68.8C302.052 67.632 300.412 67.048 298.268 67.048H295.244V80.2H298.268ZM312.452 67.048V72.64H318.548V74.44H312.452V80.2H319.268V82H310.268V65.248H319.268V67.048H312.452ZM324.997 80.224H330.853V82H322.813V65.272H324.997V80.224ZM346.3 65.272V82H344.116V74.416H335.596V82H333.412V65.272H335.596V72.616H344.116V65.272H346.3ZM352.454 65.272V82H350.27V65.272H352.454Z" fill="#5C3713"/>
<defs>
<clipPath id="clip0_299_31">
<rect width="99.9376" height="100" fill="white"/>
</clipPath>
</defs>
</svg>
